SplineFontDB: 3.0
FontName: Sahel-Bold
FullName: Sahel Bold
FamilyName: Sahel
Weight: Bold
Copyright: Copyright (c) 2016 by Saber Rastikerdar. All Rights Reserved.\nBased on DejaVu font.\nNon-Arabic(Latin) glyphs and data are imported from Open Sans font under the Apache License, Version 2.0.
Version: 2.0.1
ItalicAngle: 0
UnderlinePosition: -500
UnderlineWidth: 100
Ascent: 1638
Descent: 410
InvalidEm: 0
LayerCount: 2
Layer: 0 0 "Back" 1
Layer: 1 0 "Fore" 0
PreferredKerning: 4
XUID: [1021 502 1027637223 2257]
UniqueID: 4025625
UseUniqueID: 1
FSType: 0
OS2Version: 1
OS2_WeightWidthSlopeOnly: 0
OS2_UseTypoMetrics: 1
CreationTime: 1431850356
ModificationTime: 1565704403
PfmFamily: 33
TTFWeight: 700
TTFWidth: 5
LineGap: 0
VLineGap: 0
OS2TypoAscent: 2200
OS2TypoAOffset: 0
OS2TypoDescent: -1000
OS2TypoDOffset: 0
OS2TypoLinegap: 0
OS2WinAscent: 2200
OS2WinAOffset: 0
OS2WinDescent: 1000
OS2WinDOffset: 0
HheadAscent: 2200
HheadAOffset: 0
HheadDescent: -1000
HheadDOffset: 0
OS2CapHeight: 1638
OS2XHeight: 1082
OS2Vendor: '    '
Lookup: 4 1 1 "'ccmp' Glyph Composition/Decomposition in Arabic lookup 0" { "'ccmp' Glyph Composition/Decomposition in Arabic lookup 0 subtable"  } ['ccmp' ('DFLT' <'dflt' > 'arab' <'FAR ' 'KUR ' 'SND ' 'URD ' 'dflt' > ) ]
Lookup: 1 9 0 "'fina' Terminal Forms in Arabic lookup 1" { "'fina' Terminal Forms in Arabic lookup 1 subtable"  } ['fina' ('DFLT' <'dflt' > 'arab' <'FAR ' 'KUR ' 'SND ' 'URD ' 'dflt' > ) ]
Lookup: 1 9 0 "'medi' Medial Forms in Arabic lookup 2" { "'medi' Medial Forms in Arabic lookup 2 subtable"  } ['medi' ('DFLT' <'dflt' > 'arab' <'FAR ' 'KUR ' 'SND ' 'URD ' 'dflt' > ) ]
Lookup: 1 9 0 "'init' Initial Forms in Arabic lookup 3" { "'init' Initial Forms in Arabic lookup 3 subtable"  } ['init' ('DFLT' <'dflt' > 'arab' <'FAR ' 'KUR ' 'SND ' 'URD ' 'dflt' > ) ]

StartChar: commaarabic
Encoding: 1548 1548 2
Width: 733
GlyphClass: 2
Flags: HMW
LayerCount: 2
Fore
SplineSet
355 -4 m 256
 225 -4 160 67 160 207 c 256
 160 426 278 598 495 726 c 257
 565 769 620 704 550 650 c 256
 453 575 378 485 368 366 c 257
 474 355 540 291 540 187 c 256
 540 65 478 -4 355 -4 c 256
EndSplineSet
EndChar

StartChar: uni0615
Encoding: 1557 1557 3
Width: 0
GlyphClass: 4
Flags: HMW
AnchorPoint: "Anchor-1" 718 1877 mark 0
AnchorPoint: "Anchor-1" 550 2843 basemark 0
AnchorPoint: "Anchor-10" 718 1877 mark 0
AnchorPoint: "Anchor-9" 718 1877 mark 0
LayerCount: 2
Fore
SplineSet
996 2516 m 256
 1125 2516 1199 2442 1199 2308 c 257
 1198 2083 1024 2008 727 2008 c 258
 404 2008 l 257
 326 2160 l 257
 479 2160 l 257
 479 2831 l 257
 632 2831 l 257
 632 2262 l 257
 757 2420 881 2516 996 2516 c 256
1048 2286 m 256
 1048 2327 1028 2347 989 2347 c 256
 903 2347 803 2239 732 2160 c 257
 791 2160 l 258
 927 2160 1048 2188 1048 2286 c 256
EndSplineSet
EndChar

StartChar: uni061B
Encoding: 1563 1563 4
Width: 733
GlyphClass: 2
Flags: HMW
LayerCount: 2
Fore
SplineSet
355 566 m 256
 225 566 160 637 160 777 c 256
 160 996 278 1168 495 1296 c 257
 565 1339 620 1274 550 1219 c 257
 453 1145 378 1055 368 936 c 257
 474 925 540 861 540 757 c 256
 540 635 478 566 355 566 c 256
357 0 m 256
 248 0 159 89 159 198 c 256
 159 306 248 395 357 395 c 256
 465 395 554 306 554 198 c 256
 554 89 465 0 357 0 c 256
EndSplineSet
EndChar

StartChar: uni061F
Encoding: 1567 1567 5
Width: 964
GlyphClass: 2
Flags: HMW
LayerCount: 2
Fore
SplineSet
570 0 m 256
 462 0 372 89 372 198 c 256
 372 306 462 395 570 395 c 256
 679 395 767 306 767 198 c 256
 767 89 679 0 570 0 c 256
526 1197 m 256
 421 1197 347 1150 347 1050 c 256
 347 1005 389 951 473 883 c 257
 523 844 l 258
 624 764 674 681 674 593 c 258
 674 582 l 258
 674 566 661 558 634 558 c 258
 513 558 l 258
 481 558 464 566 464 581 c 258
 464 592 l 258
 464 616 414 666 312 739 c 257
 221 803 l 258
 109 882 54 976 54 1088 c 256
 54 1325 236 1487 485 1487 c 257
 719 1486 898 1331 898 1080 c 256
 898 1044 897 1013 894 989 c 257
 750 989 l 257
 738 1127 666 1197 526 1197 c 256
EndSplineSet
EndChar

StartChar: uni0621
Encoding: 1569 1569 6
Width: 891
GlyphClass: 2
Flags: HMW
AnchorPoint: "Anchor-7" 469 -49 basechar 0
AnchorPoint: "Anchor-10" 437 1186 basechar 0
LayerCount: 2
Fore
SplineSet
803 401 m 257
 783 195 l 257
 529 161 325 98 98 5 c 257
 96 270 l 257
 238 313 l 257
 186 371 154 435 154 515 c 256
 154 717 286 864 483 864 c 256
 579 864 680 827 741 768 c 257
 693 590 l 257
 636 618 567 632 513 632 c 256
 411 632 341 576 334 519 c 257
 334 476 447 399 492 388 c 257
 517 389 566 401 623 416 c 258
 735 445 l 258
 792 460 807 456 803 401 c 257
EndSplineSet
EndChar

StartChar: uni0627
Encoding: 1575 1575 12
Width: 492
GlyphClass: 2
Flags: HMW
AnchorPoint: "Anchor-7" 228 -216 basechar 0
AnchorPoint: "Anchor-10" 198 1550 basechar 0
LayerCount: 2
Fore
SplineSet
71 1323 m 257
 310 1480 l 257
 353 1509 368 1507 371 1451 c 256
 385 1147 391 913 391 746 c 256
 391 349 373 119 338 58 c 256
 304 0 244 -14 153 -15 c 257
 152 440 142 898 71 1323 c 257
EndSplineSet
Substitution2: "'fina' Terminal Forms in Arabic lookup 1 subtable" uniFE8E
EndChar

StartChar: uni062D
Encoding: 1581 1581 18
Width: 1321
GlyphClass: 2
Flags: HMW
AnchorPoint: "Anchor-10" 633 1131 basechar 0
AnchorPoint: "Anchor-7" 617 -849 basechar 0
LayerCount: 2
Fore
SplineSet
750 -387 m 256
 920 -387 1054 -374 1178 -355 c 256
 1231 -347 1220 -390 1200 -426 c 258
 1108 -590 l 258
 1074 -651 1024 -684 958 -690 c 256
 902 -696 837 -698 762 -698 c 257
 346 -698 119 -535 119 -128 c 256
 119 218 320 461 686 587 c 257
 577 609 445 637 397 637 c 256
 332 637 266 597 198 516 c 261
 78 579 l 257
 144 782 241 937 405 937 c 256
 465 937 592 909 822 836 c 257
 933 799 1076 758 1226 758 c 256
 1245 758 1254 754 1250 741 c 258
 1159 445 l 257
 777 382 292 220 292 -107 c 256
 292 -295 452 -387 750 -387 c 256
EndSplineSet
Substitution2: "'fina' Terminal Forms in Arabic lookup 1 subtable" uniFEA2
Substitution2: "'medi' Medial Forms in Arabic lookup 2 subtable" uniFEA4
Substitution2: "'init' Initial Forms in Arabic lookup 3 subtable" uniFEA3
EndChar

StartChar: uni062F
Encoding: 1583 1583 20
Width: 1030
GlyphClass: 2
Flags: HMW
AnchorPoint: "Anchor-7" 416 -217 basechar 0
AnchorPoint: "Anchor-10" 461 1336 basechar 0
LayerCount: 2
Fore
SplineSet
245 498 m 257
 244 494 244 477 246 459 c 256
 252 391 326 371 449 371 c 256
 651 371 761 405 761 449 c 260
 761 530 522 712 336 834 c 257
 442 1101 l 258
 455 1134 476 1130 503 1109 c 256
 782 898 941 690 941 435 c 256
 941 150 771 1 440 1 c 256
 201 1 79 110 79 329 c 256
 79 377 88 438 109 511 c 257
 245 498 l 257
EndSplineSet
PairPos2: "'kern' Horizontal Kerning lookup 0 subtable 4" uniFB90 dx=-120 dy=0 dh=-120 dv=0 dx=0 dy=0 dh=0 dv=0
PairPos2: "'kern' Horizontal Kerning lookup 0 subtable 4" uni06A9 dx=-120 dy=0 dh=-120 dv=0 dx=0 dy=0 dh=0 dv=0
PairPos2: "'kern' Horizontal Kerning lookup 0 subtable 4" uniFB94 dx=-120 dy=0 dh=-120 dv=0 dx=0 dy=0 dh=0 dv=0
PairPos2: "'kern' Horizontal Kerning lookup 0 subtable 4" uni06AF dx=-120 dy=0 dh=-120 dv=0 dx=0 dy=0 dh=0 dv=0
Substitution2: "'fina' Terminal Forms in Arabic lookup 1 subtable" uniFEAA
EndChar

StartChar: uni0631
Encoding: 1585 1585 22
Width: 771
GlyphClass: 2
Flags: HMW
AnchorPoint: "Anchor-7" 362 -672 basechar 0
AnchorPoint: "Anchor-10" 441 1042 basechar 0
LayerCount: 2
Fore
SplineSet
521 685 m 257
 574 626 711 446 711 143 c 256
 711 -211 477 -443 299 -533 c 260
 255.08984375 -555.202148438 185.51171875 -545.153320312 138 -519 c 262
 29 -459 l 262
 -114.887695312 -379.795898438 -37 -365 31 -337 c 260
 296.311523438 -227.75390625 521 -42 521 91 c 256
 521 141 449 246 321 403 c 257
 521 685 l 257
EndSplineSet
PairPos2: "'kern' Horizontal Kerning lookup 0 subtable 0" uniFEF3 dx=20 dy=0 dh=20 dv=0 dx=0 dy=0 dh=0 dv=0
PairPos2: "'kern' Horizontal Kerning lookup 0 subtable 0" uniFB58 dx=20 dy=0 dh=20 dv=0 dx=0 dy=0 dh=0 dv=0
PairPos2: "'kern' Horizontal Kerning lookup 0 subtable 0" uniFBFE dx=20 dy=0 dh=20 dv=0 dx=0 dy=0 dh=0 dv=0
PairPos2: "'kern' Horizontal Kerning lookup 0 subtable 0" uni0632 dx=-43 dy=0 dh=-43 dv=0 dx=0 dy=0 dh=0 dv=0
PairPos2: "'kern' Horizontal Kerning lookup 0 subtable 0" uni0631 dx=-43 dy=0 dh=-43 dv=0 dx=0 dy=0 dh=0 dv=0
PairPos2: "'kern' Horizontal Kerning lookup 0 subtable 0" uni06CC dx=-43 dy=0 dh=-43 dv=0 dx=0 dy=0 dh=0 dv=0
PairPos2: "'kern' Horizontal Kerning lookup 0 subtable 0" uniFEEB dx=-128 dy=0 dh=-128 dv=0 dx=0 dy=0 dh=0 dv=0
PairPos2: "'kern' Horizontal Kerning lookup 0 subtable 0" uniFB7C dx=-115 dy=0 dh=-115 dv=0 dx=0 dy=0 dh=0 dv=0
PairPos2: "'kern' Horizontal Kerning lookup 0 subtable 0" uniFEDF dx=-128 dy=0 dh=-128 dv=0 dx=0 dy=0 dh=0 dv=0
PairPos2: "'kern' Horizontal Kerning lookup 0 subtable 0" uniFB90 dx=-213 dy=0 dh=-213 dv=0 dx=0 dy=0 dh=0 dv=0
PairPos2: "'kern' Horizontal Kerning lookup 0 subtable 0" uni06A9 dx=-213 dy=0 dh=-213 dv=0 dx=0 dy=0 dh=0 dv=0
PairPos2: "'kern' Horizontal Kerning lookup 0 subtable 0" uni0649 dx=-43 dy=0 dh=-43 dv=0 dx=0 dy=0 dh=0 dv=0
PairPos2: "'kern' Horizontal Kerning lookup 0 subtable 0" uni0647 dx=-128 dy=0 dh=-128 dv=0 dx=0 dy=0 dh=0 dv=0
PairPos2: "'kern' Horizontal Kerning lookup 0 subtable 0" uniFEE7 dx=-128 dy=0 dh=-128 dv=0 dx=0 dy=0 dh=0 dv=0
PairPos2: "'kern' Horizontal Kerning lookup 0 subtable 0" uniFEE3 dx=-128 dy=0 dh=-128 dv=0 dx=0 dy=0 dh=0 dv=0
PairPos2: "'kern' Horizontal Kerning lookup 0 subtable 0" uni0645 dx=-128 dy=0 dh=-128 dv=0 dx=0 dy=0 dh=0 dv=0
PairPos2: "'kern' Horizontal Kerning lookup 0 subtable 0" uni0644 dx=-43 dy=0 dh=-43 dv=0 dx=0 dy=0 dh=0 dv=0
PairPos2: "'kern' Horizontal Kerning lookup 0 subtable 0" uniFEDB dx=-213 dy=0 dh=-213 dv=0 dx=0 dy=0 dh=0 dv=0
PairPos2: "'kern' Horizontal Kerning lookup 0 subtable 0" uniFED7 dx=-128 dy=0 dh=-128 dv=0 dx=0 dy=0 dh=0 dv=0
PairPos2: "'kern' Horizontal Kerning lookup 0 subtable 0" uni0642 dx=-43 dy=0 dh=-43 dv=0 dx=0 dy=0 dh=0 dv=0
PairPos2: "'kern' Horizontal Kerning lookup 0 subtable 0" uniFED3 dx=-128 dy=0 dh=-128 dv=0 dx=0 dy=0 dh=0 dv=0
PairPos2: "'kern' Horizontal Kerning lookup 0 subtable 0" uni0641 dx=-128 dy=0 dh=-128 dv=0 dx=0 dy=0 dh=0 dv=0
PairPos2: "'kern' Horizontal Kerning lookup 0 subtable 0" uniFECF dx=-128 dy=0 dh=-128 dv=0 dx=0 dy=0 dh=0 dv=0
PairPos2: "'kern' Horizontal Kerning lookup 0 subtable 0" uniFECB dx=-128 dy=0 dh=-128 dv=0 dx=0 dy=0 dh=0 dv=0
PairPos2: "'kern' Horizontal Kerning lookup 0 subtable 0" uniFEC7 dx=-128 dy=0 dh=-128 dv=0 dx=0 dy=0 dh=0 dv=0
PairPos2: "'kern' Horizontal Kerning lookup 0 subtable 0" uni0638 dx=-128 dy=0 dh=-128 dv=0 dx=0 dy=0 dh=0 dv=0
PairPos2: "'kern' Horizontal Kerning lookup 0 subtable 0" uniFEC3 dx=-128 dy=0 dh=-128 dv=0 dx=0 dy=0 dh=0 dv=0
PairPos2: "'kern' Horizontal Kerning lookup 0 subtable 0" uni0637 dx=-128 dy=0 dh=-128 dv=0 dx=0 dy=0 dh=0 dv=0
PairPos2: "'kern' Horizontal Kerning lookup 0 subtable 0" uniFEBF dx=-128 dy=0 dh=-128 dv=0 dx=0 dy=0 dh=0 dv=0
PairPos2: "'kern' Horizontal Kerning lookup 0 subtable 0" uni0636 dx=-128 dy=0 dh=-128 dv=0 dx=0 dy=0 dh=0 dv=0
PairPos2: "'kern' Horizontal Kerning lookup 0 subtable 0" uniFEBB dx=-128 dy=0 dh=-128 dv=0 dx=0 dy=0 dh=0 dv=0
PairPos2: "'kern' Horizontal Kerning lookup 0 subtable 0" uni0635 dx=-128 dy=0 dh=-128 dv=0 dx=0 dy=0 dh=0 dv=0
PairPos2: "'kern' Horizontal Kerning lookup 0 subtable 0" uniFEB7 dx=-128 dy=0 dh=-128 dv=0 dx=0 dy=0 dh=0 dv=0
PairPos2: "'kern' Horizontal Kerning lookup 0 subtable 0" uni0634 dx=-128 dy=0 dh=-128 dv=0 dx=0 dy=0 dh=0 dv=0
PairPos2: "'kern' Horizontal Kerning lookup 0 subtable 0" uniFEB3 dx=-128 dy=0 dh=-128 dv=0 dx=0 dy=0 dh=0 dv=0
PairPos2: "'kern' Horizontal Kerning lookup 0 subtable 0" uni0633 dx=-128 dy=0 dh=-128 dv=0 dx=0 dy=0 dh=0 dv=0
PairPos2: "'kern' Horizontal Kerning lookup 0 subtable 0" uni0630 dx=-128 dy=0 dh=-128 dv=0 dx=0 dy=0 dh=0 dv=0
PairPos2: "'kern' Horizontal Kerning lookup 0 subtable 0" uni062F dx=-128 dy=0 dh=-128 dv=0 dx=0 dy=0 dh=0 dv=0
PairPos2: "'kern' Horizontal Kerning lookup 0 subtable 0" uniFEA7 dx=-128 dy=0 dh=-128 dv=0 dx=0 dy=0 dh=0 dv=0
PairPos2: "'kern' Horizontal Kerning lookup 0 subtable 0" uniFEA3 dx=-128 dy=0 dh=-128 dv=0 dx=0 dy=0 dh=0 dv=0
PairPos2: "'kern' Horizontal Kerning lookup 0 subtable 0" uniFE9F dx=-128 dy=0 dh=-128 dv=0 dx=0 dy=0 dh=0 dv=0
PairPos2: "'kern' Horizontal Kerning lookup 0 subtable 0" uniFE9B dx=-128 dy=0 dh=-128 dv=0 dx=0 dy=0 dh=0 dv=0
PairPos2: "'kern' Horizontal Kerning lookup 0 subtable 0" uni062B dx=-128 dy=0 dh=-128 dv=0 dx=0 dy=0 dh=0 dv=0
PairPos2: "'kern' Horizontal Kerning lookup 0 subtable 0" uniFE97 dx=-128 dy=0 dh=-128 dv=0 dx=0 dy=0 dh=0 dv=0
PairPos2: "'kern' Horizontal Kerning lookup 0 subtable 0" uni062A dx=-128 dy=0 dh=-128 dv=0 dx=0 dy=0 dh=0 dv=0
PairPos2: "'kern' Horizontal Kerning lookup 0 subtable 0" uni0629 dx=-128 dy=0 dh=-128 dv=0 dx=0 dy=0 dh=0 dv=0
PairPos2: "'kern' Horizontal Kerning lookup 0 subtable 0" uniFE91 dx=-53 dy=0 dh=-53 dv=0 dx=0 dy=0 dh=0 dv=0
PairPos2: "'kern' Horizontal Kerning lookup 0 subtable 0" uni0628 dx=-128 dy=0 dh=-128 dv=0 dx=0 dy=0 dh=0 dv=0
PairPos2: "'kern' Horizontal Kerning lookup 0 subtable 0" uni0627 dx=-150 dy=0 dh=-150 dv=0 dx=0 dy=0 dh=0 dv=0
PairPos2: "'kern' Horizontal Kerning lookup 0 subtable 0" uni0622 dx=-150 dy=0 dh=-150 dv=0 dx=0 dy=0 dh=0 dv=0
PairPos2: "'kern' Horizontal Kerning lookup 0 subtable 0" uniFB94 dx=-235 dy=0 dh=-235 dv=0 dx=0 dy=0 dh=0 dv=0
PairPos2: "'kern' Horizontal Kerning lookup 0 subtable 0" uni06AF dx=-235 dy=0 dh=-235 dv=0 dx=0 dy=0 dh=0 dv=0
PairPos2: "'kern' Horizontal Kerning lookup 0 subtable 0" uniFB56 dx=-128 dy=0 dh=-128 dv=0 dx=0 dy=0 dh=0 dv=0
PairPos2: "'kern' Horizontal Kerning lookup 0 subtable 0" uni067E dx=-128 dy=0 dh=-128 dv=0 dx=0 dy=0 dh=0 dv=0
PairPos2: "'kern' Horizontal Kerning lookup 0 subtable 2" uni0648 dx=-43 dy=0 dh=-43 dv=0 dx=0 dy=0 dh=0 dv=0
PairPos2: "'kern' Horizontal Kerning lookup 0 subtable 3" uni06C0 dx=-128 dy=0 dh=-128 dv=0 dx=0 dy=0 dh=0 dv=0
PairPos2: "'kern' Horizontal Kerning lookup 0 subtable 3" uni0621 dx=-128 dy=0 dh=-128 dv=0 dx=0 dy=0 dh=0 dv=0
Substitution2: "'fina' Terminal Forms in Arabic lookup 1 subtable" uniFEAE
EndChar

StartChar: uni0633
Encoding: 1587 1587 24
Width: 2364
GlyphClass: 2
Flags: HMW
AnchorPoint: "Anchor-7" 620 -772 basechar 0
AnchorPoint: "Anchor-10" 1651 1127 basechar 0
LayerCount: 2
Fore
SplineSet
1934 369 m 256
 2012 369 2077 398 2077 467 c 256
 2077 532 2044 560 1981 681 c 257
 2133 873 l 257
 2157 905 2162 908 2185 873 c 257
 2254 762 2288 640 2288 506 c 256
 2288 280 2163 -1 1935 -1 c 256
 1830 -1 1749 53 1689 159 c 257
 1622 53 1546 0 1458 0 c 256
 1411 0 1363 14 1315 42 c 257
 1296 -333 1083 -546 694 -547 c 257
 322 -546 91 -355 91 -3 c 256
 91 153 129 310 201 467 c 257
 342 422 l 257
 307 308 290 210 290 131 c 256
 290 -109 449 -196 696 -196 c 256
 923 -196 1132 -94 1132 48 c 260
 1132 108 1045 248 974 363 c 257
 1140 605 l 258
 1154 625 1167 619 1182 595 c 257
 1214 539 1247 485 1283 449 c 257
 1331 396 1384 370 1449 370 c 256
 1548 370 1602 416 1610 507 c 258
 1624 655 l 257
 1763 655 l 257
 1779 513 l 258
 1790 417 1842 369 1934 369 c 256
EndSplineSet
Substitution2: "'init' Initial Forms in Arabic lookup 3 subtable" uniFEB3
Substitution2: "'medi' Medial Forms in Arabic lookup 2 subtable" uniFEB4
Substitution2: "'fina' Terminal Forms in Arabic lookup 1 subtable" uniFEB2
EndChar

StartChar: uni0635
Encoding: 1589 1589 26
Width: 2608
GlyphClass: 2
Flags: HMW
AnchorPoint: "Anchor-7" 618 -769 basechar 0
AnchorPoint: "Anchor-10" 2143 1255 basechar 0
LayerCount: 2
Fore
SplineSet
2321 469 m 256
 2321 550 2250 615 2100 615 c 256
 1951 615 1782 523 1621 371 c 257
 1909 371 l 258
 2181 371 2321 383 2321 469 c 256
2526 575 m 256
 2526 230 2221 1 1806 1 c 258
 1584 1 l 258
 1474 1 1384 14 1315 40 c 257
 1296 -338 1081 -546 685 -547 c 257
 320 -546 91 -351 91 -3 c 256
 91 153 129 310 201 467 c 257
 342 422 l 257
 307 308 290 210 290 131 c 256
 290 -106 449 -196 691 -196 c 256
 954 -196 1132 -79 1132 45 c 260
 1132 99 1046 247 973 363 c 257
 1139 603 l 257
 1151 623 1168 619 1180 598 c 256
 1254 471 1327 375 1444 372 c 257
 1618 604 1915 920 2187 920 c 256
 2391 920 2526 795 2526 575 c 256
EndSplineSet
Substitution2: "'fina' Terminal Forms in Arabic lookup 1 subtable" uniFEBA
Substitution2: "'medi' Medial Forms in Arabic lookup 2 subtable" uniFEBC
Substitution2: "'init' Initial Forms in Arabic lookup 3 subtable" uniFEBB
EndChar

StartChar: uni0637
Encoding: 1591 1591 28
Width: 1560
GlyphClass: 2
Flags: HMW
AnchorPoint: "Anchor-10" 437 1561 basechar 0
AnchorPoint: "Anchor-7" 697 -212 basechar 0
LayerCount: 2
Fore
SplineSet
1478 572 m 256
 1478 207 1149 0 759 0 c 258
 251 0 l 257
 59 274 l 258
 1 357 28 369 90 369 c 258
 409 369 l 257
 409 375 409 384 409 393 c 257
 403 680 384 1104 347 1326 c 257
 580 1482 l 258
 627 1514 636 1518 636 1444 c 258
 636 635 l 257
 823 824 991 919 1140 919 c 256
 1345 919 1478 792 1478 572 c 256
1273 469 m 256
 1273 549 1202 614 1052 614 c 256
 905 614 733 523 573 370 c 261
 863 370 l 258
 1142 370 1273 385 1273 469 c 256
EndSplineSet
Substitution2: "'fina' Terminal Forms in Arabic lookup 1 subtable" uniFEC2
Substitution2: "'medi' Medial Forms in Arabic lookup 2 subtable" uniFEC4
Substitution2: "'init' Initial Forms in Arabic lookup 3 subtable" uniFEC3
EndChar

StartChar: uni0639
Encoding: 1593 1593 30
Width: 1270
GlyphClass: 2
Flags: HMW
AnchorPoint: "Anchor-7" 643 -886 basechar 0
AnchorPoint: "Anchor-10" 665 1329 basechar 0
LayerCount: 2
Fore
SplineSet
735 -387 m 256
 891 -387 1028 -373 1146 -355 c 256
 1201 -347 1190 -389 1169 -426 c 258
 1076 -590 l 258
 1043 -650 994 -680 929 -689 c 256
 877 -696 816 -698 744 -698 c 257
 341 -698 97 -539 97 -147 c 256
 97 81 204 281 413 414 c 257
 338 493 286 590 286 682 c 256
 286 905 465 1105 695 1105 c 256
 827 1105 934 1058 1019 963 c 257
 1002 899 985 844 966 784 c 257
 888 819 813 838 738 838 c 256
 613 838 472 759 472 686 c 256
 472 641 582 548 674 521 c 257
 813 548 965 572 1081 577 c 257
 1124 578 1135 562 1125 520 c 258
 1060 253 l 257
 694 249 269 132 269 -130 c 260
 269 -315 434 -387 735 -387 c 256
EndSplineSet
Substitution2: "'fina' Terminal Forms in Arabic lookup 1 subtable" uniFECA
Substitution2: "'medi' Medial Forms in Arabic lookup 2 subtable" uniFECC
Substitution2: "'init' Initial Forms in Arabic lookup 3 subtable" uniFECB
EndChar

StartChar: uni0640
Encoding: 1600 1600 32
Width: 245
GlyphClass: 2
Flags: HMW
AnchorPoint: "Anchor-7" 120 -225 basechar 0
AnchorPoint: "Anchor-10" 131 931 basechar 0
LayerCount: 2
Fore
SplineSet
-60 142 m 258
 -60 237 l 258
 -60 325 -42 369 -5 369 c 258
 250 369 l 258
 267 369 275 325 275 237 c 258
 275 142 l 258
 275 47 267 0 250 0 c 258
 -5 0 l 258
 -42 0 -60 47 -60 142 c 258
EndSplineSet
EndChar

StartChar: uni0643
Encoding: 1603 1603 35
Width: 1899
GlyphClass: 2
Flags: HMW
AnchorPoint: "Anchor-7" 797 -189 basechar 0
AnchorPoint: "Anchor-10" 924 1502 basechar 0
LayerCount: 2
Fore
SplineSet
1773 711 m 258
 1773 425 1720 245 1619 163 c 256
 1474 46 1213 0 846 0 c 256
 422 0 89 106 89 484 c 256
 89 624 122 758 188 886 c 257
 307 839 l 257
 286 763 275 697 275 642 c 257
 275 442 466 366 858 366 c 256
 1215 366 1409 396 1487 452 c 256
 1531 483 1533 542 1533 616 c 256
 1533 773 1509 1166 1486 1325 c 257
 1728 1481 l 257
 1769 1509 1773 1505 1773 1441 c 258
 1773 711 l 258
915 794 m 256
 991 794 1060 809 1063 853 c 257
 1061 874 1021 892 942 910 c 257
 819 936 758 1007 758 1123 c 256
 758 1296 949 1354 1106 1374 c 257
 1152 1377 1167 1355 1153 1315 c 258
 1112 1199 l 257
 992 1187 873 1172 871 1116 c 257
 871 1084 937 1073 995 1063 c 256
 1119 1042 1185 980 1185 852 c 256
 1185 699 1056 619 901 619 c 256
 828 619 736 637 655 662 c 257
 673 839 l 257
 757 809 838 794 915 794 c 256
EndSplineSet
Substitution2: "'fina' Terminal Forms in Arabic lookup 1 subtable" uniFEDA
Substitution2: "'medi' Medial Forms in Arabic lookup 2 subtable" uniFEDC
Substitution2: "'init' Initial Forms in Arabic lookup 3 subtable" uniFEDB
EndChar

StartChar: uni0644
Encoding: 1604 1604 36
Width: 1372
GlyphClass: 2
Flags: HMW
AnchorPoint: "Anchor-7" 613 -703 basechar 0
AnchorPoint: "Anchor-10" 566 990 basechar 0
LayerCount: 2
Fore
SplineSet
1249 191 m 258
 1260 -265 1092 -531 668 -531 c 256
 314 -531 85 -325 85 14 c 256
 85 175 123 331 195 484 c 257
 335 439 l 257
 301 324 283 227 283 147 c 256
 283 -86 440 -179 674 -179 c 256
 882 -179 1039 -103 1039 99 c 260
 1039 267 984 712 927 1324 c 257
 1149 1471 l 257
 1203 1508 1216 1513 1218 1428 c 258
 1249 191 l 258
EndSplineSet
Substitution2: "'fina' Terminal Forms in Arabic lookup 1 subtable" uniFEDE
Substitution2: "'medi' Medial Forms in Arabic lookup 2 subtable" uniFEE0
Substitution2: "'init' Initial Forms in Arabic lookup 3 subtable" uniFEDF
EndChar

StartChar: uni0645
Encoding: 1605 1605 37
Width: 1146
GlyphClass: 2
Flags: HMW
AnchorPoint: "Anchor-7" 248 -866 basechar 0
AnchorPoint: "Anchor-10" 647 1134 basechar 0
LayerCount: 2
Fore
SplineSet
388 80 m 256
 354 80 323 75 298 64 c 257
 312 -419 l 257
 316 -520 276 -605 200 -683 c 256
 160 -724 108 -763 104 -671 c 256
 97 -499 90 -307 89 -112 c 257
 90 134 131 337 305 407 c 257
 371 655 461 874 673 875 c 257
 855 875 1077 605 1078 393 c 257
 1078 256 969 46 877 27 c 257
 868 24 856 24 841 27 c 256
 654 62 504 80 388 80 c 256
458 417 m 257
 562 412 663 402 731 390 c 256
 784 380 838 373 850 372 c 257
 867 369 888 366 886 379 c 257
 869 457 769 607 653 607 c 260
 568 607 488 499 458 417 c 257
EndSplineSet
Substitution2: "'fina' Terminal Forms in Arabic lookup 1 subtable" uniFEE2
Substitution2: "'medi' Medial Forms in Arabic lookup 2 subtable" uniFEE4
Substitution2: "'init' Initial Forms in Arabic lookup 3 subtable" uniFEE3
EndChar

StartChar: uni0647
Encoding: 1607 1607 39
Width: 903
GlyphClass: 2
Flags: HMW
AnchorPoint: "Anchor-7" 427 -217 basechar 0
AnchorPoint: "Anchor-10" 379 1199 basechar 0
LayerCount: 2
Fore
SplineSet
456 5 m 256
 217 5 86 144 86 380 c 256
 86 542 161 721 313 916 c 256
 335 945 361 957 397 944 c 256
 619 863 826 667 826 425 c 256
 826 187 687 5 456 5 c 256
383 624 m 257
 312 531 266 463 266 418 c 260
 266 357 350 342 449 342 c 256
 568 342 647 373 647 439 c 256
 647 525 488 585 383 624 c 257
EndSplineSet
Substitution2: "'fina' Terminal Forms in Arabic lookup 1 subtable" uniFEEA
Substitution2: "'medi' Medial Forms in Arabic lookup 2 subtable" uniFEEC
Substitution2: "'init' Initial Forms in Arabic lookup 3 subtable" uniFEEB
EndChar

StartChar: uni0648
Encoding: 1608 1608 40
Width: 833
GlyphClass: 2
Flags: HMW
AnchorPoint: "Anchor-7" 332 -682 basechar 0
AnchorPoint: "Anchor-10" 400 1087 basechar 0
LayerCount: 2
Fore
SplineSet
532 1 m 1
 488 -5 452 -6 410 -6 c 256
 198 -4 83 104 83 304 c 256
 83 519 202 819 417 819 c 256
 666 819 753 512 753 233 c 256
 753 -231 514 -443 336 -533 c 260
 292 -555 222.51171875 -545.153320312 175 -519 c 262
 66 -459 l 262
 -78 -380 0 -365 68 -337 c 260
 281 -249 470 -106 532 1 c 1
258 429 m 257
 258 365 351 356 429 356 c 256
 472 356 527 358 575 361 c 257
 543 476 478 545 384 546 c 257
 319 545 258 502 258 429 c 257
EndSplineSet
Substitution2: "'fina' Terminal Forms in Arabic lookup 1 subtable" uniFEEE
EndChar

StartChar: uni0649
Encoding: 1609 1609 41
Width: 1517
GlyphClass: 2
Flags: HMW
AnchorPoint: "Anchor-7" 654 -683 basechar 0
AnchorPoint: "Anchor-10" 688 1026 basechar 0
LayerCount: 2
Fore
SplineSet
1288 540 m 256
 1144 540 1037 476 953 363 c 257
 1195 296 l 258
 1323 260 1382 212 1382 92 c 256
 1382 -266 1081 -519 697 -519 c 256
 323 -519 91 -331 91 26 c 256
 91 186 133 354 217 528 c 257
 354 481 l 257
 310 348 289 241 289 163 c 256
 289 -72 443 -172 704 -172 c 256
 1029 -172 1192 -43 1192 -10 c 260
 1192 -4 1187 0 1178 2 c 262
 899 74 l 258
 790 104 739 144 739 217 c 256
 739 519 977 859 1269 859 c 256
 1333 859 1392 845 1449 817 c 257
 1437 711 1422 618 1404 530 c 257
 1370 535 1327 540 1288 540 c 256
EndSplineSet
Substitution2: "'fina' Terminal Forms in Arabic lookup 1 subtable" uniFEF0
Substitution2: "'medi' Medial Forms in Arabic lookup 2 subtable" uniFBE9
Substitution2: "'init' Initial Forms in Arabic lookup 3 subtable" uniFBE8
EndChar

StartChar: uni064B
Encoding: 1611 1611 43
Width: 0
GlyphClass: 4
Flags: HMW
AnchorPoint: "Anchor-1" 625 1141 mark 0
AnchorPoint: "Anchor-1" 595 1695 basemark 0
AnchorPoint: "Anchor-10" 625 1141 mark 0
AnchorPoint: "Anchor-9" 625 1141 mark 0
LayerCount: 2
Fore
SplineSet
351 1118 m 257
 351 1257 l 257
 801 1442 l 257
 801 1302 l 257
 351 1118 l 257
351 1371 m 257
 351 1510 l 257
 801 1695 l 257
 801 1555 l 257
 351 1371 l 257
EndSplineSet
EndChar

StartChar: uni064C
Encoding: 1612 1612 44
Width: 0
GlyphClass: 4
Flags: HMW
AnchorPoint: "Anchor-1" 691 1262 mark 0
AnchorPoint: "Anchor-1" 594 1986 basemark 0
AnchorPoint: "Anchor-10" 691 1262 mark 0
AnchorPoint: "Anchor-9" 691 1262 mark 0
LayerCount: 2
Fore
SplineSet
347 1599 m 257
 355 1476 370 1363 455 1363 c 256
 561 1363 635 1447 683 1538 c 257
 573 1564 487 1623 487 1734 c 256
 487 1850 560 1919 672 1919 c 256
 785 1919 863 1846 863 1722 c 256
 863 1688 855 1654 846 1624 c 257
 872 1623 898 1622 933 1622 c 257
 933 1504 l 257
 880 1504 847 1506 794 1513 c 257
 742 1403 629 1247 473 1247 c 256
 311 1247 260 1388 255 1599 c 257
 347 1599 l 257
745 1717 m 256
 745 1767 723 1801 679 1801 c 256
 630 1801 608 1782 608 1738 c 256
 608 1685 663 1664 725 1645 c 257
 736 1669 745 1694 745 1717 c 256
EndSplineSet
EndChar

StartChar: uni064D
Encoding: 1613 1613 45
Width: 0
GlyphClass: 4
Flags: HMW
AnchorPoint: "Anchor-0" 525 92 mark 0
AnchorPoint: "Anchor-0" 573 -442 basemark 0
AnchorPoint: "Anchor-7" 525 92 mark 0
AnchorPoint: "Anchor-6" 525 92 mark 0
LayerCount: 2
Fore
SplineSet
300 -485 m 257
 300 -346 l 257
 750 -161 l 257
 750 -300 l 257
 300 -485 l 257
300 -232 m 257
 300 -93 l 257
 750 92 l 257
 750 -47 l 257
 300 -232 l 257
EndSplineSet
EndChar

StartChar: uni064E
Encoding: 1614 1614 46
Width: 0
GlyphClass: 4
Flags: HMW
AnchorPoint: "Anchor-1" 545 1310 mark 0
AnchorPoint: "Anchor-1" 529 1609 basemark 0
AnchorPoint: "Anchor-10" 545 1310 mark 0
AnchorPoint: "Anchor-9" 545 1310 mark 0
LayerCount: 2
Fore
SplineSet
280 1292 m 257
 280 1431 l 257
 730 1616 l 257
 730 1477 l 257
 280 1292 l 257
EndSplineSet
EndChar

StartChar: uni064F
Encoding: 1615 1615 47
Width: 0
GlyphClass: 4
Flags: HMW
AnchorPoint: "Anchor-1" 594 1234 mark 0
AnchorPoint: "Anchor-1" 529 1858 basemark 0
AnchorPoint: "Anchor-10" 594 1234 mark 0
AnchorPoint: "Anchor-9" 594 1234 mark 0
LayerCount: 2
Fore
SplineSet
569 1687 m 256
 533 1687 509 1662 509 1628 c 256
 509 1590 556 1563 614 1546 c 257
 626 1577 632 1602 632 1623 c 256
 632 1667 611 1687 569 1687 c 256
394 1628 m 256
 394 1722 464 1804 566 1804 c 256
 679 1804 746 1730 746 1622 c 256
 746 1594 737 1557 728 1526 c 257
 757 1524 783 1524 810 1524 c 257
 810 1412 l 257
 765 1412 727 1414 675 1420 c 257
 594 1313 468 1237 288 1227 c 257
 288 1340 l 257
 405 1346 483 1383 548 1453 c 257
 465 1482 394 1530 394 1628 c 256
EndSplineSet
EndChar

StartChar: uni0650
Encoding: 1616 1616 48
Width: 0
GlyphClass: 4
Flags: HMW
AnchorPoint: "Anchor-0" 556 -14 mark 0
AnchorPoint: "Anchor-0" 595 -291 basemark 0
AnchorPoint: "Anchor-7" 556 -14 mark 0
AnchorPoint: "Anchor-6" 556 -14 mark 0
LayerCount: 2
Fore
SplineSet
325 -338 m 257
 325 -199 l 257
 775 -14 l 257
 775 -153 l 257
 325 -338 l 257
EndSplineSet
EndChar

StartChar: uni0651
Encoding: 1617 1617 49
Width: 0
GlyphClass: 4
Flags: HMW
AnchorPoint: "Anchor-1" 582 1322 mark 0
AnchorPoint: "Anchor-1" 550 1796 basemark 0
AnchorPoint: "Anchor-10" 582 1322 mark 0
AnchorPoint: "Anchor-9" 582 1322 mark 0
LayerCount: 2
Fore
SplineSet
415 1490 m 256
 467 1490 495 1515 495 1569 c 257
 495 1702 l 257
 527 1713 562 1719 605 1723 c 257
 607 1620 l 258
 608 1572 634 1551 686 1551 c 256
 729 1551 751 1575 751 1623 c 256
 751 1654 751 1684 750 1715 c 257
 856 1785 l 257
 861 1738 866 1680 866 1635 c 256
 866 1466 811 1381 701 1381 c 256
 651 1381 608 1398 573 1430 c 257
 539 1357 484 1320 409 1320 c 256
 296 1320 240 1393 240 1541 c 256
 240 1583 244 1634 248 1681 c 257
 347 1641 l 257
 348 1556 l 258
 349 1513 370 1490 415 1490 c 256
EndSplineSet
EndChar

StartChar: uni0652
Encoding: 1618 1618 50
Width: 0
GlyphClass: 4
Flags: HMW
AnchorPoint: "Anchor-1" 722 1517 mark 0
AnchorPoint: "Anchor-1" 703 2089 basemark 0
AnchorPoint: "Anchor-10" 722 1517 mark 0
AnchorPoint: "Anchor-9" 722 1517 mark 0
LayerCount: 2
Fore
SplineSet
717 1991 m 256
 851 1991 937 1902 938 1768 c 257
 937 1644 838 1549 717 1549 c 256
 595 1549 497 1649 497 1770 c 256
 497 1901 594 1991 717 1991 c 256
717 1662 m 257
 780 1662 826 1704 826 1769 c 256
 826 1833 782 1878 719 1878 c 256
 651 1878 609 1835 609 1768 c 256
 609 1703 653 1663 717 1662 c 257
EndSplineSet
EndChar

StartChar: uni0653
Encoding: 1619 1619 51
Width: 0
GlyphClass: 4
Flags: HMW
AnchorPoint: "Anchor-1" 469 1582 mark 0
AnchorPoint: "Anchor-1" 455 2046 basemark 0
AnchorPoint: "Anchor-10" 469 1582 mark 0
AnchorPoint: "Anchor-9" 469 1582 mark 0
LayerCount: 2
Fore
SplineSet
318 1892 m 256
 354 1892 411 1887 466 1880 c 256
 518 1874 569 1869 601 1869 c 256
 667 1869 724 1873 770 1885 c 257
 881 1917 834 1832 786 1769 c 256
 735 1702 693 1661 526 1661 c 256
 479 1661 424 1664 362 1669 c 257
 303 1666 241 1635 178 1579 c 257
 155 1594 130 1612 117 1630 c 257
 175 1804 220 1892 318 1892 c 256
EndSplineSet
EndChar

StartChar: uni0657
Encoding: 1623 1623 54
Width: 0
GlyphClass: 4
Flags: HMW
AnchorPoint: "Anchor-1" 672 1832 mark 0
AnchorPoint: "Anchor-1" 744 2712 basemark 0
AnchorPoint: "Anchor-10" 672 1832 mark 0
AnchorPoint: "Anchor-9" 672 1832 mark 0
LayerCount: 2
Fore
SplineSet
413 2098 m 256
 413 2135 424 2189 439 2233 c 257
 402 2236 368 2237 327 2237 c 257
 327 2372 l 257
 383 2370 436 2367 504 2361 c 257
 626 2537 817 2649 1035 2669 c 257
 1035 2534 l 257
 920 2526 757 2431 657 2321 c 257
 770 2291 873 2217 873 2078 c 256
 873 1952 777 1866 652 1866 c 256
 505 1866 413 1963 413 2098 c 256
548 2107 m 256
 548 2046 583 2003 627 2001 c 257
 699 2001 733 2030 733 2089 c 256
 733 2152 666 2185 577 2210 c 257
 561 2175 548 2138 548 2107 c 256
EndSplineSet
EndChar

StartChar: uni065A
Encoding: 1626 1626 55
Width: 1473
GlyphClass: 4
Flags: HMW
AnchorPoint: "Anchor-1" 750 1840 mark 0
AnchorPoint: "Anchor-1" 741 2430 basemark 0
AnchorPoint: "Anchor-10" 750 1840 mark 0
AnchorPoint: "Anchor-9" 750 1840 mark 0
LayerCount: 2
Fore
SplineSet
641 1876 m 257
 365 2337 l 257
 546 2337 l 257
 744 2040 l 257
 942 2337 l 257
 1123 2337 l 257
 847 1876 l 257
 641 1876 l 257
EndSplineSet
EndChar

StartChar: uni0660
Encoding: 1632 1632 56
Width: 897
GlyphClass: 2
Flags: HMW
LayerCount: 2
Fore
SplineSet
452 867 m 257
 721 597 l 257
 446 322 l 257
 176 592 l 257
 452 867 l 257
EndSplineSet
EndChar

StartChar: uni0661
Encoding: 1633 1633 57
Width: 752
GlyphClass: 2
Flags: HMW
LayerCount: 2
Fore
SplineSet
361 1447 m 257
 492 1115 560 717 560 257 c 256
 560 193 557 125 547 73 c 256
 539 34 500 23 356 -2 c 257
 353 466 272 881 112 1244 c 257
 307 1459 l 257
 329 1485 348 1482 361 1447 c 257
EndSplineSet
EndChar

StartChar: uni0662
Encoding: 1634 1634 58
Width: 1142
GlyphClass: 2
Flags: HMW
LayerCount: 2
Fore
SplineSet
645 1131 m 256
 777 1131 851 1217 871 1389 c 258
 877 1439 l 257
 1047 1439 l 257
 1046 1378 l 258
 1040 988 901 793 631 793 c 256
 593 793 557 795 525 801 c 257
 548 628 560 447 560 261 c 257
 560 197 557 128 547 73 c 256
 540 34 501 23 356 -2 c 257
 352 471 272 889 112 1251 c 257
 307 1459 l 258
 329 1483 349 1481 361 1447 c 256
 377 1402 398 1344 423 1274 c 256
 456 1178 530 1131 645 1131 c 256
EndSplineSet
EndChar

StartChar: uni0663
Encoding: 1635 1635 59
Width: 1329
GlyphClass: 2
Flags: HMW
LayerCount: 2
Fore
SplineSet
528 793 m 257
 549 628 560 450 560 261 c 257
 560 197 557 128 547 73 c 256
 540 34 501 23 356 -2 c 257
 352 471 272 889 112 1251 c 257
 307 1459 l 258
 330 1484 349 1483 361 1447 c 256
 377 1401 398 1343 423 1274 c 256
 457 1179 509 1130 578 1130 c 256
 644 1130 682 1179 692 1276 c 258
 705 1397 l 257
 869 1397 l 257
 872 1275 l 257
 873 1178 906 1129 970 1129 c 256
 1022 1129 1053 1183 1063 1294 c 258
 1074 1420 l 257
 1245 1420 l 257
 1244 1354 l 257
 1242 988 1148 804 959 804 c 256
 878 804 813 846 763 929 c 257
 724 842 655 797 557 793 c 257
 547 792 538 792 528 793 c 257
EndSplineSet
EndChar

StartChar: uni0664
Encoding: 1636 1636 60
Width: 988
GlyphClass: 2
Flags: HMW
LayerCount: 2
Fore
SplineSet
447 356 m 257
 529 324 712 312 889 314 c 257
 883 85 l 257
 882 17 869 -1 821 -1 c 256
 489 -1 125 81 125 269 c 256
 125 395 239 531 427 648 c 257
 216 749 110 850 110 949 c 256
 110 1144 389 1291 706 1434 c 257
 772 1465 803 1457 790 1389 c 258
 728 1069 l 257
 618 1053 525 1032 451 1004 c 256
 410 989 412 962 452 937 c 256
 544 880 647 828 760 779 c 257
 764 724 768 670 772 614 c 257
 614 546 498 480 435 418 c 256
 408 390 405 369 447 356 c 257
EndSplineSet
EndChar

StartChar: uni0665
Encoding: 1637 1637 61
Width: 1145
GlyphClass: 2
Flags: HMW
LayerCount: 2
Fore
SplineSet
552 957 m 257
 397 767 320 613 320 496 c 256
 320 367 421 313 564 313 c 256
 730 313 840 370 840 501 c 256
 840 626 744 778 552 957 c 257
320 1157 m 257
 483 1451 l 257
 869 1114 1063 793 1063 482 c 256
 1063 197 859 -10 561 -10 c 256
 284 -10 80 174 80 446 c 256
 80 635 195 857 399 1097 c 257
 320 1157 l 257
EndSplineSet
EndChar

StartChar: uni0666
Encoding: 1638 1638 62
Width: 1204
GlyphClass: 2
Flags: HMW
LayerCount: 2
Fore
SplineSet
907 1406 m 257
 920 690 976 349 1102 196 c 257
 921 -17 l 257
 741 160 705 494 682 1067 c 257
 581 1049 484 1039 400 1039 c 256
 257 1039 160 1059 120 1101 c 256
 89 1134 75 1229 66 1391 c 257
 63 1465 75 1465 133 1443 c 256
 249 1399 387 1376 548 1376 c 256
 656 1376 782 1389 907 1406 c 257
EndSplineSet
EndChar

StartChar: uni0667
Encoding: 1639 1639 63
Width: 1247
GlyphClass: 2
Flags: HMW
LayerCount: 2
Fore
SplineSet
1188 1238 m 257
 996 901 843 488 730 -3 c 257
 542 -3 l 257
 444 457 283 868 60 1228 c 257
 230 1464 l 258
 248 1488 265 1480 280 1451 c 256
 418 1196 534 864 630 454 c 257
 740 910 845 1239 943 1442 c 256
 958 1474 975 1484 995 1462 c 257
 1188 1238 l 257
EndSplineSet
EndChar

StartChar: uni0668
Encoding: 1640 1640 64
Width: 1248
GlyphClass: 2
Flags: HMW
LayerCount: 2
Fore
SplineSet
1188 213 m 257
 995 -11 l 258
 975 -34 959 -24 943 9 c 256
 845 212 740 541 630 997 c 257
 534 587 418 256 280 0 c 256
 265 -29 248 -38 230 -14 c 258
 60 223 l 257
 283 584 444 993 542 1453 c 257
 730 1453 l 257
 843 963 996 550 1188 213 c 257
EndSplineSet
EndChar

StartChar: uni0669
Encoding: 1641 1641 65
Width: 1080
GlyphClass: 2
Flags: HMW
LayerCount: 2
Fore
SplineSet
457 914 m 257
 506 914 562 919 624 930 c 257
 610 1082 570 1186 446 1186 c 256
 366 1186 297 1109 297 1002 c 256
 297 926 363 914 457 914 c 257
471 1467 m 256
 726 1467 830 1225 836 940 c 256
 844 559 901 313 1007 202 c 257
 837 -20 l 257
 708 88 642 302 637 623 c 257
 569 613 508 609 453 609 c 256
 223 609 99 711 99 934 c 256
 99 1194 229 1467 471 1467 c 256
EndSplineSet
EndChar

StartChar: uni066A
Encoding: 1642 1642 66
Width: 1213
GlyphClass: 2
Flags: HMW
LayerCount: 2
Fore
SplineSet
316 1002 m 256
 208 1002 121 1090 121 1197 c 256
 121 1304 208 1393 316 1393 c 256
 424 1393 511 1305 511 1198 c 256
 511 1090 424 1002 316 1002 c 256
820 1455 m 257
 1032 1342 l 257
 341 -3 l 257
 129 112 l 257
 820 1455 l 257
892 134 m 256
 785 134 697 222 697 329 c 256
 697 437 784 524 891 524 c 256
 999 524 1088 438 1088 329 c 256
 1088 221 999 134 892 134 c 256
EndSplineSet
EndChar

StartChar: uni066B
Encoding: 1643 1643 67
Width: 908
GlyphClass: 2
Flags: HMW
LayerCount: 2
Fore
SplineSet
563 814 m 257
 762 731 l 257
 216 -414 l 257
 15 -328 l 257
 563 814 l 257
EndSplineSet
PairPos2: "'kern' Horizontal Kerning lookup 0 subtable 6" uni06F4 dx=-110 dy=0 dh=-110 dv=0 dx=0 dy=0 dh=0 dv=0
PairPos2: "'kern' Horizontal Kerning lookup 0 subtable 6" uni06F3 dx=-130 dy=0 dh=-130 dv=0 dx=0 dy=0 dh=0 dv=0
PairPos2: "'kern' Horizontal Kerning lookup 0 subtable 6" uni06F2 dx=-130 dy=0 dh=-130 dv=0 dx=0 dy=0 dh=0 dv=0
EndChar

StartChar: uni066C
Encoding: 1644 1644 68
Width: 513
GlyphClass: 2
Flags: HMW
LayerCount: 2
Fore
SplineSet
90 148 m 256
 90 244 152 310 246 310 c 256
 354 310 409 240 409 120 c 256
 409 -54 313 -194 128 -308 c 257
 79 -337 19 -295 79 -249 c 257
 167 -177 236 -87 238 0 c 257
 152 3 90 58 90 148 c 256
EndSplineSet
PairPos2: "'kern' Horizontal Kerning lookup 0 subtable 6" uni06F4 dx=-112 dy=0 dh=-112 dv=0 dx=0 dy=0 dh=0 dv=0
PairPos2: "'kern' Horizontal Kerning lookup 0 subtable 6" uni06F3 dx=-128 dy=0 dh=-128 dv=0 dx=0 dy=0 dh=0 dv=0
PairPos2: "'kern' Horizontal Kerning lookup 0 subtable 6" uni06F2 dx=-112 dy=0 dh=-112 dv=0 dx=0 dy=0 dh=0 dv=0
EndChar

StartChar: uni066D
Encoding: 1645 1645 69
Width: 1734
GlyphClass: 2
Flags: HMW
LayerCount: 2
Fore
SplineSet
165 1192 m 257
 701 1192 l 257
 869 1702 l 257
 1037 1192 l 257
 1573 1192 l 257
 1139 875 l 257
 1305 365 l 257
 869 681 l 257
 432 365 l 257
 599 875 l 257
 165 1192 l 257
EndSplineSet
EndChar

StartChar: uni066E
Encoding: 1646 1646 70
Width: 1798
GlyphClass: 2
Flags: HMW
AnchorPoint: "Anchor-7" 640 -205 basechar 0
AnchorPoint: "Anchor-10" 783 1279 basechar 0
LayerCount: 2
Fore
SplineSet
833 0 m 256
 421 0 89 123 89 484 c 256
 89 620 122 751 185 876 c 257
 313 833 l 257
 292 759 282 695 282 637 c 256
 282 425 504 366 849 366 c 256
 1197 366 1502 378 1502 482 c 260
 1502 527 1457 606 1406 715 c 257
 1559 909 l 258
 1583 939 1589 942 1608 910 c 256
 1677 795 1711 668 1712 511 c 261
 1711 127 1351 0 833 0 c 256
EndSplineSet
Substitution2: "'fina' Terminal Forms in Arabic lookup 1 subtable" uni066E.fina
Substitution2: "'medi' Medial Forms in Arabic lookup 2 subtable" uniFBE9
Substitution2: "'init' Initial Forms in Arabic lookup 3 subtable" uniFBE8
EndChar

StartChar: uni066F
Encoding: 1647 1647 71
Width: 1408
GlyphClass: 2
Flags: HMW
AnchorPoint: "Anchor-7" 561 -689 basechar 0
AnchorPoint: "Anchor-10" 540 1174 basechar 0
LayerCount: 2
Fore
SplineSet
962 103 m 256
 774 103 685 188 685 366 c 256
 685 613 796 844 999 844 c 256
 1236 844 1322 540 1322 250 c 256
 1322 -207 1137 -446 695 -446 c 256
 321 -446 90 -254 90 99 c 256
 90 259 128 416 200 568 c 257
 340 523 l 257
 306 408 288 311 288 232 c 256
 288 -10 450 -94 703 -94 c 256
 959 -94 1131 -21 1158 121 c 257
 1084 110 1013 103 962 103 c 256
993 399 m 256
 1053 399 1121 405 1157 416 c 257
 1124 527 1056 582 975 582 c 256
 913 582 848 535 848 465 c 260
 848 408 912 399 993 399 c 256
EndSplineSet
Substitution2: "'fina' Terminal Forms in Arabic lookup 1 subtable" uni066F.fina
Substitution2: "'medi' Medial Forms in Arabic lookup 2 subtable" uni06A1.medi
Substitution2: "'init' Initial Forms in Arabic lookup 3 subtable" uni06A1.init
EndChar

StartChar: uni0670
Encoding: 1648 1648 72
Width: 0
GlyphClass: 4
Flags: HMW
AnchorPoint: "Anchor-1" 774 1748 mark 0
AnchorPoint: "Anchor-1" 744 2285 basemark 0
AnchorPoint: "Anchor-10" 774 1748 mark 0
AnchorPoint: "Anchor-9" 774 1748 mark 0
LayerCount: 2
Fore
SplineSet
724 1801 m 257
 665 2171 l 257
 822 2264 l 257
 822 1834 l 257
 724 1801 l 257
EndSplineSet
EndChar

StartChar: uni0674
Encoding: 1652 1652 73
Width: 802
GlyphClass: 2
Flags: HMW
LayerCount: 2
Fore
SplineSet
183 1770 m 257
 209 1945 l 257
 232 1956 255 1967 277 1978 c 257
 220 2003 191 2051 191 2118 c 256
 191 2223 251 2378 422 2378 c 256
 486 2378 545 2348 602 2294 c 257
 555 2186 l 257
 506 2202 459 2212 424 2212 c 256
 355 2212 318 2172 318 2150 c 256
 318 2124 350 2074 434 2074 c 256
 466 2074 501 2079 534 2088 c 256
 573 2099 612 2106 612 2068 c 258
 612 1943 l 257
 493 1909 347 1849 183 1770 c 257
EndSplineSet
EndChar

StartChar: uni0686
Encoding: 1670 1670 75
Width: 1321
GlyphClass: 2
Flags: HMW
AnchorPoint: "Anchor-7" 602 -830 basechar 0
AnchorPoint: "Anchor-10" 682 1128 basechar 0
LayerCount: 2
Fore
SplineSet
798.150390625 -22 m 2
 916.049804688 -140.799804688 l 2
 924.150390625 -148.900390625 921.450195312 -150.700195312 916.950195312 -155.200195312 c 2
 797.25 -274.900390625 l 2
 791.849609375 -280.299804688 790.049804688 -282.099609375 782.849609375 -274.900390625 c 2
 664.049804688 -156.099609375 l 2
 656.849609375 -148.900390625 657.75 -148.900390625 666.75 -139.900390625 c 2
 783.75 -22 l 2
 790.049804688 -15.7001953125 792.75 -16.599609375 798.150390625 -22 c 2
947.549804688 194.900390625 m 2
 1065.45019531 76.099609375 l 2
 1073.54980469 68 1070.84960938 66.2001953125 1066.34960938 61.7001953125 c 2
 946.650390625 -58 l 2
 941.25 -63.400390625 939.450195312 -65.2001953125 932.25 -58 c 2
 813.450195312 60.7998046875 l 2
 806.25 68 807.150390625 68 816.150390625 77 c 2
 933.150390625 194.900390625 l 2
 939.450195312 201.200195312 942.150390625 200.299804688 947.549804688 194.900390625 c 2
648.75 194.900390625 m 2
 766.650390625 76.099609375 l 2
 774.75 68 772.049804688 66.2001953125 767.549804688 61.7001953125 c 2
 647.849609375 -58 l 2
 642.450195312 -63.400390625 640.650390625 -65.2001953125 633.450195312 -58 c 2
 514.650390625 60.7998046875 l 2
 507.450195312 68 508.349609375 68 517.349609375 77 c 2
 634.349609375 194.900390625 l 2
 640.650390625 201.200195312 643.349609375 200.299804688 648.75 194.900390625 c 2
EndSplineSet
Refer: 18 1581 N 1 0 0 1 0 0 2
Substitution2: "'fina' Terminal Forms in Arabic lookup 1 subtable" uniFB7B
Substitution2: "'medi' Medial Forms in Arabic lookup 2 subtable" uniFB7D
Substitution2: "'init' Initial Forms in Arabic lookup 3 subtable" uniFB7C
EndChar

StartChar: uni06A1
Encoding: 1697 1697 77
Width: 1729
GlyphClass: 2
Flags: HMW
AnchorPoint: "Anchor-7" 618 -190 basechar 0
AnchorPoint: "Anchor-10" 744 1456 basechar 0
LayerCount: 2
Fore
SplineSet
1300 757 m 256
 1362 757 1431 763 1467 773 c 257
 1434 885 1373 940 1288 940 c 256
 1225 940 1154 893 1154 822 c 256
 1154 766 1218 757 1300 757 c 256
1283 485 m 256
 1090 485 993 563 993 732 c 256
 993 977 1102 1202 1308 1202 c 256
 1551 1202 1642 883 1642 590 c 256
 1642 81 1396 0 830 0 c 256
 418 0 90 112 90 484 c 256
 90 630 122 760 186 876 c 257
 312 833 l 257
 292 760 282 696 282 642 c 256
 282 396 561 365 892 365 c 260
 1282 365 1453 372 1473 501 c 257
 1406 490 1341 485 1283 485 c 256
EndSplineSet
Substitution2: "'fina' Terminal Forms in Arabic lookup 1 subtable" uni06A1.fina
Substitution2: "'medi' Medial Forms in Arabic lookup 2 subtable" uni06A1.medi
Substitution2: "'init' Initial Forms in Arabic lookup 3 subtable" uni06A1.init
EndChar

StartChar: uni06A9
Encoding: 1705 1705 78
Width: 1910
GlyphClass: 2
Flags: HMW
AnchorPoint: "Anchor-7" 763 -231 basechar 0
AnchorPoint: "Anchor-10" 1022 1408 basechar 0
LayerCount: 2
Fore
SplineSet
1241 1055 m 257
 1499 842 1629 657 1629 494 c 256
 1629 120 1249 0 814 0 c 256
 414 0 89 119 89 484 c 256
 89 620 122 751 185 876 c 257
 313 833 l 257
 292 759 282 695 282 641 c 256
 282 420 516 366 833 366 c 256
 1071 366 1414 401 1415 484 c 261
 1415 554 1177 747 926 945 c 257
 988 1245 l 257
 1806 1532 l 257
 1835 1544 1842 1531 1838 1499 c 257
 1800 1246 l 257
 1241 1055 l 257
EndSplineSet
Substitution2: "'fina' Terminal Forms in Arabic lookup 1 subtable" uniFB8F
Substitution2: "'medi' Medial Forms in Arabic lookup 2 subtable" uniFB91
Substitution2: "'init' Initial Forms in Arabic lookup 3 subtable" uniFB90
EndChar

StartChar: uni06AF
Encoding: 1711 1711 79
Width: 1892
GlyphClass: 2
Flags: HMW
AnchorPoint: "Anchor-7" 703 -210 basechar 0
AnchorPoint: "Anchor-10" 1019 1529 basechar 0
LayerCount: 2
Fore
SplineSet
827 366 m 256
 1084 366 1387 393 1388 483 c 261
 1386 545 1154 710 926 869 c 257
 989 1167 l 257
 1808 1455 l 258
 1838 1465 1843 1451 1838 1418 c 258
 1801 1168 l 257
 1241 978 l 257
 1479 797 1597 635 1597 491 c 256
 1597 123 1233 0 814 0 c 256
 414 0 89 119 89 484 c 256
 89 620 122 751 185 876 c 257
 313 833 l 257
 292 759 282 695 282 641 c 256
 282 414 514 366 827 366 c 256
EndSplineSet
Refer: 270 -1 N 1.1342 0 0 1.1342 999 -653 2
Substitution2: "'init' Initial Forms in Arabic lookup 3 subtable" uniFB94
Substitution2: "'medi' Medial Forms in Arabic lookup 2 subtable" uniFB95
Substitution2: "'fina' Terminal Forms in Arabic lookup 1 subtable" uniFB93
EndChar

StartChar: uni06BA
Encoding: 1722 1722 80
Width: 1407
GlyphClass: 2
Flags: HMW
LayerCount: 2
Fore
SplineSet
686 -410 m 256
 320 -410 91 -215 91 135 c 256
 91 290 128 447 201 605 c 257
 342 560 l 257
 307 445 290 348 290 268 c 256
 290 31 449 -58 691 -58 c 256
 939 -58 1132 50 1132 187 c 260
 1132 239 1045 386 974 501 c 257
 1141 742 l 258
 1154 762 1169 758 1186 734 c 256
 1280 598 1326 434 1326 240 c 256
 1326 -166 1101 -410 686 -410 c 256
EndSplineSet
Substitution2: "'fina' Terminal Forms in Arabic lookup 1 subtable" uniFB9F
Substitution2: "'medi' Medial Forms in Arabic lookup 2 subtable" uniFBE9
Substitution2: "'init' Initial Forms in Arabic lookup 3 subtable" uniFBE8
EndChar

StartChar: uni06F4
Encoding: 1780 1780 87
Width: 1234
GlyphClass: 2
Flags: HMW
LayerCount: 2
Fore
SplineSet
904 1246 m 256
 802 1246 705 1176 705 1066 c 256
 705 995 820 974 900 974 c 256
 981 974 1057 990 1129 1022 c 257
 1154 817 l 257
 1062 746 955 710 830 710 c 256
 715 710 614 736 527 789 c 257
 549 626 560 447 560 261 c 256
 560 197 557 128 547 73 c 256
 540 34 501 23 356 -2 c 257
 352 466 272 881 112 1244 c 257
 307 1459 l 258
 330 1485 350 1483 361 1447 c 257
 408 1311 457 1159 541 1092 c 257
 539 1113 538 1129 538 1144 c 256
 538 1331 664 1471 854 1471 c 256
 964 1471 1053 1424 1124 1336 c 257
 1070 1207 l 257
 1013 1230 952 1246 904 1246 c 256
EndSplineSet
PairPos2: "'kern' Horizontal Kerning lookup 0 subtable 6" uni06F8 dx=-70 dy=0 dh=-70 dv=0 dx=0 dy=0 dh=0 dv=0
PairPos2: "'kern' Horizontal Kerning lookup 0 subtable 6" uni06F5 dx=-70 dy=0 dh=-70 dv=0 dx=0 dy=0 dh=0 dv=0
EndChar

StartChar: uni06F5
Encoding: 1781 1781 88
Width: 1216
GlyphClass: 2
Flags: MW
LayerCount: 2
Fore
SplineSet
663 566 m 257
 701 403 762 310 853 310 c 256
 915 310 946 346 946 419 c 256
 946 553 823 745 576 998 c 257
 377 709 277 514 277 416 c 256
 277 344 311 308 378 308 c 256
 463 308 517 405 558 567 c 257
 663 566 l 257
617 161 m 257
 563 58 478 8 362 8 c 256
 175 8 81 124 81 356 c 256
 81 566 193 840 415 1181 c 257
 375 1224 l 257
 514 1445 l 258
 524 1461 538 1460 555 1442 c 256
 938 1051 1136 693 1136 383 c 256
 1136 133 1048 8 873 8 c 256
 762 8 677 59 617 161 c 257
EndSplineSet
PairPos2: "'kern' Horizontal Kerning lookup 0 subtable 6" uni06F0 dx=-30 dy=0 dh=-30 dv=0 dx=0 dy=0 dh=0 dv=0
PairPos2: "'kern' Horizontal Kerning lookup 0 subtable 6" uni06F7 dx=-70 dy=0 dh=-70 dv=0 dx=0 dy=0 dh=0 dv=0
PairPos2: "'kern' Horizontal Kerning lookup 0 subtable 6" uni06F6 dx=-70 dy=0 dh=-70 dv=0 dx=0 dy=0 dh=0 dv=0
PairPos2: "'kern' Horizontal Kerning lookup 0 subtable 6" uni06F4 dx=-70 dy=0 dh=-70 dv=0 dx=0 dy=0 dh=0 dv=0
PairPos2: "'kern' Horizontal Kerning lookup 0 subtable 6" uni06F3 dx=-100 dy=0 dh=-100 dv=0 dx=0 dy=0 dh=0 dv=0
PairPos2: "'kern' Horizontal Kerning lookup 0 subtable 6" uni06F2 dx=-100 dy=0 dh=-100 dv=0 dx=0 dy=0 dh=0 dv=0
EndChar

StartChar: uni06F6
Encoding: 1782 1782 89
Width: 1078
GlyphClass: 2
Flags: HMW
LayerCount: 2
Fore
SplineSet
585 1186 m 256
 444 1186 321 1103 320 1017 c 257
 321 918 472 888 665 878 c 257
 718 902 771 933 800 948 c 256
 849 974 920 1015 958 1025 c 257
 990 1031 1001 1015 993 969 c 258
 948 703 l 257
 738 612 528 381 269 -28 c 257
 144 76 l 258
 121 96 122 118 134 147 c 257
 207 307 301 468 416 631 c 257
 218 695 116 820 116 997 c 256
 116 1242 323 1465 539 1465 c 256
 657 1465 757 1424 849 1344 c 257
 780 1151 l 257
 706 1175 641 1186 585 1186 c 256
EndSplineSet
EndChar

StartChar: uniFB7B
Encoding: 64379 64379 98
Width: 1337
GlyphClass: 2
Flags: HMW
AnchorPoint: "Anchor-7" 651 -898 basechar 0
AnchorPoint: "Anchor-10" 653 1143 basechar 0
LayerCount: 2
Fore
SplineSet
676.299804688 -73 m 2
 781.099609375 -178.599609375 l 2
 788.299804688 -185.799804688 785.900390625 -187.400390625 781.900390625 -191.400390625 c 2
 675.5 -297.799804688 l 2
 670.700195312 -302.599609375 669.099609375 -304.200195312 662.700195312 -297.799804688 c 2
 557.099609375 -192.200195312 l 2
 550.700195312 -185.799804688 551.5 -185.799804688 559.5 -177.799804688 c 2
 663.5 -73 l 2
 669.099609375 -67.400390625 671.5 -68.2001953125 676.299804688 -73 c 2
809.099609375 119.799804688 m 2
 913.900390625 14.2001953125 l 2
 921.099609375 7 918.700195312 5.400390625 914.700195312 1.400390625 c 2
 808.299804688 -105 l 2
 803.5 -109.799804688 801.900390625 -111.400390625 795.5 -105 c 2
 689.900390625 0.599609375 l 2
 683.5 7 684.299804688 7 692.299804688 15 c 2
 796.299804688 119.799804688 l 2
 801.900390625 125.400390625 804.299804688 124.599609375 809.099609375 119.799804688 c 2
543.5 119.799804688 m 2
 648.299804688 14.2001953125 l 2
 655.5 7 653.099609375 5.400390625 649.099609375 1.400390625 c 2
 542.700195312 -105 l 2
 537.900390625 -109.799804688 536.299804688 -111.400390625 529.900390625 -105 c 2
 424.299804688 0.599609375 l 2
 417.900390625 7 418.700195312 7 426.700195312 15 c 2
 530.700195312 119.799804688 l 2
 536.299804688 125.400390625 538.700195312 124.599609375 543.5 119.799804688 c 2
EndSplineSet
Refer: 170 65186 N 1 0 0 1 0 0 2
EndChar

StartChar: uniFB8F
Encoding: 64399 64399 104
Width: 2121
GlyphClass: 2
Flags: HMW
AnchorPoint: "Anchor-7" 770 -223 basechar 0
AnchorPoint: "Anchor-10" 1008 1394 basechar 0
LayerCount: 2
Fore
SplineSet
818 0 m 256
 415 0 89 117 89 484 c 256
 89 620 122 751 185 876 c 257
 313 833 l 257
 292 759 282 695 282 641 c 256
 282 418 516 366 833 366 c 256
 1082 366 1412 392 1412 486 c 256
 1412 551 1181 743 926 945 c 257
 988 1245 l 257
 1808 1533 l 257
 1838 1544 1843 1529 1838 1499 c 258
 1801 1246 l 257
 1241 1055 l 257
 1364 945 1515 791 1701 590 c 257
 1838 443 1975 369 2110 369 c 258
 2123 369 l 258
 2140 369 2148 326 2148 240 c 258
 2148 142 l 258
 2148 47 2140 0 2123 0 c 258
 2107 0 l 258
 1909 0 1721 104 1563 312 c 261
 1488 100 1179 0 818 0 c 256
EndSplineSet
EndChar

StartChar: uniFB93
Encoding: 64403 64403 108
Width: 2036
GlyphClass: 2
Flags: HMW
AnchorPoint: "Anchor-7" 765 -200 basechar 0
AnchorPoint: "Anchor-10" 983 1583 basechar 0
LayerCount: 2
Fore
SplineSet
834 366 m 256
 1087 366 1377 393 1378 483 c 257
 1376 549 1145 715 926 869 c 257
 989 1167 l 257
 1808 1455 l 258
 1838 1466 1843 1451 1838 1421 c 258
 1801 1168 l 257
 1241 978 l 257
 1335 892 1467 770 1610 636 c 257
 1790 472 1948 369 2034 369 c 258
 2044 369 l 258
 2061 369 2069 326 2069 240 c 258
 2069 145 l 258
 2069 48 2061 0 2044 0 c 258
 2032 0 l 258
 1853 0 1677 101 1522 302 c 261
 1428 96 1159 0 818 0 c 256
 415 0 89 117 89 484 c 256
 89 620 122 751 185 876 c 257
 313 833 l 257
 292 759 282 695 282 641 c 256
 282 421 516 366 834 366 c 256
EndSplineSet
Refer: 270 -1 N 1.1342 0 0 1.1342 999 -653 2
EndChar

StartChar: uniFB94
Encoding: 64404 64404 109
Width: 995
VWidth: 2200
GlyphClass: 2
Flags: HMW
AnchorPoint: "Anchor-7" 334 -245 basechar 0
AnchorPoint: "Anchor-10" 215 1585 basechar 0
LayerCount: 2
Fore
SplineSet
23 867 m 257
 85 1166 l 257
 904 1454 l 258
 934 1465 939 1451 934 1420 c 258
 897 1167 l 257
 337 977 l 257
 579 789 700 618 700 462 c 256
 700 148 464 0 92 0 c 258
 -5 0 l 258
 -42 0 -60 51 -60 154 c 258
 -60 224 l 258
 -60 321 -42 369 -5 369 c 258
 92 369 l 258
 318 369 491 389 491 472 c 260
 491 541 290 677 23 867 c 257
EndSplineSet
Refer: 270 -1 N 1.1342 0 0 1.1342 105 -634 2
EndChar

StartChar: uniFB95
Encoding: 64405 64405 110
Width: 1135
VWidth: 2200
GlyphClass: 2
Flags: HMW
AnchorPoint: "Anchor-7" 367 -218 basechar 0
AnchorPoint: "Anchor-10" 245 1664 basechar 0
LayerCount: 2
Fore
SplineSet
485 472 m 256
 485 540 296 672 23 868 c 257
 85 1166 l 257
 904 1454 l 258
 934 1465 939 1451 934 1420 c 258
 897 1167 l 257
 337 977 l 257
 426 900 550 786 708 637 c 257
 904 458 1045 369 1130 369 c 258
 1140 369 l 258
 1157 369 1165 325 1165 237 c 258
 1165 142 l 258
 1165 47 1157 0 1140 0 c 258
 1128 0 l 258
 966 0 798 99 641 296 c 261
 600 110 374 0 103 0 c 258
 -5 0 l 258
 -42 0 -60 52 -60 158 c 258
 -60 228 l 258
 -60 322 -42 369 -5 369 c 258
 103 369 l 258
 328 369 485 391 485 472 c 256
EndSplineSet
Refer: 270 -1 N 1.1342 0 0 1.1342 105 -634 2
EndChar

StartChar: uniFB9F
Encoding: 64415 64415 112
Width: 1452
GlyphClass: 2
Flags: HMW
AnchorPoint: "Anchor-7" 451 -1000 basechar 0
AnchorPoint: "Anchor-10" 575 1014 basechar 0
LayerCount: 2
Fore
SplineSet
1315 42 m 257
 1296 -334 1083 -546 690 -547 c 257
 321 -546 91 -353 91 -3 c 256
 91 153 129 310 201 467 c 257
 342 422 l 257
 307 308 290 210 290 131 c 256
 290 -107 447 -196 691 -196 c 256
 932 -196 1132 -92 1132 47 c 260
 1132 113 1045 247 974 363 c 257
 1141 605 l 258
 1154 624 1168 621 1183 596 c 256
 1216 539 1259 467 1287 436 c 257
 1325 391 1369 369 1420 369 c 258
 1457 369 l 258
 1474 369 1482 326 1482 240 c 258
 1482 145 l 258
 1482 48 1474 0 1457 0 c 258
 1424 0 l 258
 1386 0 1350 14 1315 42 c 257
EndSplineSet
EndChar

StartChar: uniFBE8
Encoding: 64488 64488 115
Width: 634
GlyphClass: 2
Flags: HMW
AnchorPoint: "Anchor-7" 351 -250 basechar 0
AnchorPoint: "Anchor-10" 323 1251 basechar 0
LayerCount: 2
Fore
SplineSet
564 517 m 256
 564 210 406 0 103 0 c 258
 -5 0 l 258
 -42 0 -60 51 -60 154 c 258
 -60 224 l 258
 -60 321 -42 369 -5 369 c 258
 117 369 l 258
 244 369 351 380 351 448 c 260
 351 503 310 591 257 709 c 257
 409 903 l 258
 434 935 441 938 462 902 c 256
 529 791 564 662 564 517 c 256
EndSplineSet
EndChar

StartChar: uniFBE9
Encoding: 64489 64489 116
Width: 728
GlyphClass: 2
Flags: HMW
AnchorPoint: "Anchor-7" 351 -209 basechar 0
AnchorPoint: "Anchor-10" 377 1169 basechar 0
LayerCount: 2
Fore
SplineSet
-5 369 m 258
 93 369 l 258
 244 369 326 419 337 521 c 258
 354 681 l 257
 497 681 l 257
 515 524 l 257
 528 420 594 369 714 369 c 258
 733 369 l 258
 750 369 758 325 758 237 c 258
 758 142 l 258
 758 47 750 0 733 0 c 258
 712 0 l 258
 579 0 487 54 420 164 c 257
 347 54 232 0 88 0 c 258
 -5 0 l 258
 -42 0 -60 51 -60 154 c 258
 -60 224 l 258
 -60 321 -42 369 -5 369 c 258
EndSplineSet
EndChar

StartChar: uniFE73
Encoding: 65139 65139 124
Width: 895
GlyphClass: 2
Flags: HMW
AnchorPoint: "Anchor-7" 331 -163 basechar 0
AnchorPoint: "Anchor-10" 331 2023 basechar 0
LayerCount: 2
Fore
SplineSet
754 0 m 262
 447 0 194 177 194 521 c 262
 194 577 l 261
 469 577 l 261
 469 542 l 262
 469 366 621 275 809 275 c 262
 918 275 l 261
 918 0 l 261
 754 0 l 262
EndSplineSet
EndChar

StartChar: uniFE8E
Encoding: 65166 65166 150
Width: 553
GlyphClass: 2
Flags: HMW
AnchorPoint: "Anchor-7" 281 -220 basechar 0
AnchorPoint: "Anchor-10" 200 1550 basechar 0
LayerCount: 2
Fore
SplineSet
368 766 m 256
 370 473 372 369 538 369 c 258
 558 369 l 258
 575 369 583 325 583 237 c 258
 583 142 l 258
 583 47 575 0 558 0 c 258
 504 0 l 258
 149 0 129 265 126 646 c 256
 124 952 104 1180 68 1330 c 257
 295 1481 l 258
 338 1510 347 1503 351 1438 c 256
 360 1293 367 979 368 766 c 256
EndSplineSet
EndChar

StartChar: uniFEA2
Encoding: 65186 65186 170
Width: 1337
GlyphClass: 2
Flags: HMW
AnchorPoint: "Anchor-7" 617 -849 basechar 0
AnchorPoint: "Anchor-10" 633 1131 basechar 0
LayerCount: 2
Fore
SplineSet
850 385 m 257
 581 302 292 146 292 -107 c 256
 292 -295 452 -387 750 -387 c 256
 920 -387 1054 -374 1178 -355 c 256
 1230 -347 1220 -391 1200 -426 c 258
 1108 -590 l 258
 1074 -651 1024 -684 958 -690 c 256
 902 -696 837 -698 762 -698 c 257
 346 -698 119 -535 119 -128 c 256
 119 217 320 461 686 587 c 257
 581 610 445 637 397 637 c 256
 332 637 266 597 198 516 c 261
 78 579 l 257
 144 782 241 937 405 937 c 256
 465 937 602 904 826 835 c 257
 928 803 1085 758 1226 758 c 256
 1245 758 1255 755 1250 741 c 258
 1159 464 l 257
 1107 457 1056 449 1006 437 c 257
 1027 388 1123 369 1311 369 c 258
 1342 369 l 258
 1359 369 1367 325 1367 237 c 258
 1367 142 l 258
 1367 47 1359 0 1342 0 c 258
 1283 0 l 258
 1020 0 875 128 850 385 c 257
EndSplineSet
EndChar

StartChar: uniFEA3
Encoding: 65187 65187 171
Width: 1324
GlyphClass: 2
Flags: HMW
AnchorPoint: "Anchor-7" 551 -217 basechar 0
AnchorPoint: "Anchor-10" 539 1236 basechar 0
LayerCount: 2
Fore
SplineSet
187 530 m 261
 68 592 l 257
 144 805 251 971 449 971 c 256
 518 971 620 939 754 875 c 256
 989 764 1091 724 1251 724 c 256
 1277 724 1285 722 1279 704 c 258
 1199 440 l 257
 1101 415 924 330 666 185 c 257
 440 62 252 0 105 0 c 258
 -5 0 l 258
 -42 0 -60 51 -60 154 c 258
 -60 224 l 258
 -60 321 -42 369 -5 369 c 258
 140 369 l 258
 414 369 626 437 815 539 c 257
 765 555 683 581 609 608 c 256
 524 639 456 658 422 658 c 256
 331 658 256 614 187 530 c 261
EndSplineSet
EndChar

StartChar: uniFEA4
Encoding: 65188 65188 172
Width: 1337
GlyphClass: 2
Flags: HMW
AnchorPoint: "Anchor-7" 536 -214 basechar 0
AnchorPoint: "Anchor-10" 539 1236 basechar 0
LayerCount: 2
Fore
SplineSet
187 530 m 261
 68 592 l 257
 144 805 251 971 449 971 c 256
 518 971 620 939 754 875 c 256
 989 764 1091 724 1251 724 c 256
 1277 724 1285 722 1279 704 c 258
 1207 462 l 257
 1145 453 1075 432 1011 399 c 257
 1030 373 1069 368 1129 368 c 257
 1342 369 l 257
 1359 369 1367 325 1367 237 c 258
 1367 142 l 258
 1367 47 1359 0 1342 0 c 258
 1222 0 l 258
 996 0 868 98 830 302 c 257
 610 165 328 0 105 0 c 258
 -5 0 l 258
 -42 0 -60 51 -60 154 c 258
 -60 224 l 258
 -60 321 -42 369 -5 369 c 258
 140 369 l 258
 414 369 625 438 815 539 c 257
 765 555 683 581 609 608 c 256
 524 639 456 658 422 658 c 256
 331 658 256 614 187 530 c 261
EndSplineSet
EndChar

StartChar: uniFEAA
Encoding: 65194 65194 178
Width: 1125
GlyphClass: 2
Flags: HMW
AnchorPoint: "Anchor-7" 467 -254 basechar 0
AnchorPoint: "Anchor-10" 624 1353 basechar 0
LayerCount: 2
Fore
SplineSet
809 204 m 257
 714 68 584 0 418 0 c 256
 193 0 78 110 78 328 c 256
 78 377 89 439 110 512 c 257
 244 498 l 257
 245 462 l 258
 247 403 311 372 434 372 c 256
 579 372 690 402 690 466 c 256
 690 474 689 483 685 495 c 258
 536 932 l 257
 666 1098 l 262
 704 1146 710 1143 730 1085 c 262
 907 554 l 258
 947.999557975 431.001326075 1023 369 1112 369 c 258
 1130 369 l 258
 1147 369 1155 325 1155 237 c 258
 1155 142 l 258
 1155 47 1147 0 1130 0 c 258
 1105 0 l 258
 961 0 862 68 809 204 c 257
EndSplineSet
PairPos2: "'kern' Horizontal Kerning lookup 0 subtable 4" uniFB90 dx=-120 dy=0 dh=-120 dv=0 dx=0 dy=0 dh=0 dv=0
PairPos2: "'kern' Horizontal Kerning lookup 0 subtable 4" uni06A9 dx=-120 dy=0 dh=-120 dv=0 dx=0 dy=0 dh=0 dv=0
PairPos2: "'kern' Horizontal Kerning lookup 0 subtable 4" uniFB94 dx=-120 dy=0 dh=-120 dv=0 dx=0 dy=0 dh=0 dv=0
PairPos2: "'kern' Horizontal Kerning lookup 0 subtable 4" uni06AF dx=-120 dy=0 dh=-120 dv=0 dx=0 dy=0 dh=0 dv=0
EndChar

StartChar: uniFEAE
Encoding: 65198 65198 182
Width: 855
GlyphClass: 2
Flags: HMW
AnchorPoint: "Anchor-7" 352 -682 basechar 0
AnchorPoint: "Anchor-10" 465 959 basechar 0
LayerCount: 2
Fore
SplineSet
703 36 m 1
 664.48828125 -262.36328125 460.161132812 -451.514648438 299 -533 c 260
 255.08984375 -555.202148438 185.51171875 -545.153320312 138 -519 c 262
 29 -459 l 262
 -114.887695312 -379.795898438 -37 -365 31 -337 c 260
 296.311523438 -227.75390625 521 -42 521 91 c 256
 521 142 467 221 341 379 c 257
 529 646 l 257
 543 628 612 525 667 453 c 256
 711 396 767 369 834 369 c 258
 854 369 l 258
 871 369 879 321 879 224 c 258
 879 142 l 258
 879 47 871 0 854 0 c 258
 829 0 l 258
 778 0 736 12 703 36 c 1
EndSplineSet
PairPos2: "'kern' Horizontal Kerning lookup 0 subtable 0" uniFEF3 dx=20 dy=0 dh=20 dv=0 dx=0 dy=0 dh=0 dv=0
PairPos2: "'kern' Horizontal Kerning lookup 0 subtable 0" uniFB58 dx=20 dy=0 dh=20 dv=0 dx=0 dy=0 dh=0 dv=0
PairPos2: "'kern' Horizontal Kerning lookup 0 subtable 0" uniFBFE dx=20 dy=0 dh=20 dv=0 dx=0 dy=0 dh=0 dv=0
PairPos2: "'kern' Horizontal Kerning lookup 0 subtable 0" uni0644 dx=-43 dy=0 dh=-43 dv=0 dx=0 dy=0 dh=0 dv=0
PairPos2: "'kern' Horizontal Kerning lookup 0 subtable 0" uni0642 dx=-43 dy=0 dh=-43 dv=0 dx=0 dy=0 dh=0 dv=0
PairPos2: "'kern' Horizontal Kerning lookup 0 subtable 0" uni0632 dx=-43 dy=0 dh=-43 dv=0 dx=0 dy=0 dh=0 dv=0
PairPos2: "'kern' Horizontal Kerning lookup 0 subtable 0" uni0631 dx=-43 dy=0 dh=-43 dv=0 dx=0 dy=0 dh=0 dv=0
PairPos2: "'kern' Horizontal Kerning lookup 0 subtable 0" uniFB8A dx=-43 dy=0 dh=-43 dv=0 dx=0 dy=0 dh=0 dv=0
PairPos2: "'kern' Horizontal Kerning lookup 0 subtable 0" uni0698 dx=-43 dy=0 dh=-43 dv=0 dx=0 dy=0 dh=0 dv=0
PairPos2: "'kern' Horizontal Kerning lookup 0 subtable 0" uniFB7C dx=-128 dy=0 dh=-128 dv=0 dx=0 dy=0 dh=0 dv=0
PairPos2: "'kern' Horizontal Kerning lookup 0 subtable 0" uni06CC dx=-43 dy=0 dh=-43 dv=0 dx=0 dy=0 dh=0 dv=0
PairPos2: "'kern' Horizontal Kerning lookup 0 subtable 0" uniFEEB dx=-128 dy=0 dh=-128 dv=0 dx=0 dy=0 dh=0 dv=0
PairPos2: "'kern' Horizontal Kerning lookup 0 subtable 0" uniFEDF dx=-128 dy=0 dh=-128 dv=0 dx=0 dy=0 dh=0 dv=0
PairPos2: "'kern' Horizontal Kerning lookup 0 subtable 0" uniFB90 dx=-213 dy=0 dh=-213 dv=0 dx=0 dy=0 dh=0 dv=0
PairPos2: "'kern' Horizontal Kerning lookup 0 subtable 0" uni06A9 dx=-213 dy=0 dh=-213 dv=0 dx=0 dy=0 dh=0 dv=0
PairPos2: "'kern' Horizontal Kerning lookup 0 subtable 0" uni0649 dx=-43 dy=0 dh=-43 dv=0 dx=0 dy=0 dh=0 dv=0
PairPos2: "'kern' Horizontal Kerning lookup 0 subtable 0" uni0647 dx=-128 dy=0 dh=-128 dv=0 dx=0 dy=0 dh=0 dv=0
PairPos2: "'kern' Horizontal Kerning lookup 0 subtable 0" uniFEE7 dx=-128 dy=0 dh=-128 dv=0 dx=0 dy=0 dh=0 dv=0
PairPos2: "'kern' Horizontal Kerning lookup 0 subtable 0" uniFEE3 dx=-128 dy=0 dh=-128 dv=0 dx=0 dy=0 dh=0 dv=0
PairPos2: "'kern' Horizontal Kerning lookup 0 subtable 0" uni0645 dx=-128 dy=0 dh=-128 dv=0 dx=0 dy=0 dh=0 dv=0
PairPos2: "'kern' Horizontal Kerning lookup 0 subtable 0" uniFEDB dx=-213 dy=0 dh=-213 dv=0 dx=0 dy=0 dh=0 dv=0
PairPos2: "'kern' Horizontal Kerning lookup 0 subtable 0" uniFED7 dx=-128 dy=0 dh=-128 dv=0 dx=0 dy=0 dh=0 dv=0
PairPos2: "'kern' Horizontal Kerning lookup 0 subtable 0" uniFED3 dx=-128 dy=0 dh=-128 dv=0 dx=0 dy=0 dh=0 dv=0
PairPos2: "'kern' Horizontal Kerning lookup 0 subtable 0" uni0641 dx=-128 dy=0 dh=-128 dv=0 dx=0 dy=0 dh=0 dv=0
PairPos2: "'kern' Horizontal Kerning lookup 0 subtable 0" uniFECF dx=-128 dy=0 dh=-128 dv=0 dx=0 dy=0 dh=0 dv=0
PairPos2: "'kern' Horizontal Kerning lookup 0 subtable 0" uniFECB dx=-128 dy=0 dh=-128 dv=0 dx=0 dy=0 dh=0 dv=0
PairPos2: "'kern' Horizontal Kerning lookup 0 subtable 0" uniFEC7 dx=-128 dy=0 dh=-128 dv=0 dx=0 dy=0 dh=0 dv=0
PairPos2: "'kern' Horizontal Kerning lookup 0 subtable 0" uni0638 dx=-128 dy=0 dh=-128 dv=0 dx=0 dy=0 dh=0 dv=0
PairPos2: "'kern' Horizontal Kerning lookup 0 subtable 0" uniFEC3 dx=-128 dy=0 dh=-128 dv=0 dx=0 dy=0 dh=0 dv=0
PairPos2: "'kern' Horizontal Kerning lookup 0 subtable 0" uni0637 dx=-128 dy=0 dh=-128 dv=0 dx=0 dy=0 dh=0 dv=0
PairPos2: "'kern' Horizontal Kerning lookup 0 subtable 0" uniFEBF dx=-128 dy=0 dh=-128 dv=0 dx=0 dy=0 dh=0 dv=0
PairPos2: "'kern' Horizontal Kerning lookup 0 subtable 0" uni0636 dx=-128 dy=0 dh=-128 dv=0 dx=0 dy=0 dh=0 dv=0
PairPos2: "'kern' Horizontal Kerning lookup 0 subtable 0" uniFEBB dx=-128 dy=0 dh=-128 dv=0 dx=0 dy=0 dh=0 dv=0
PairPos2: "'kern' Horizontal Kerning lookup 0 subtable 0" uni0635 dx=-128 dy=0 dh=-128 dv=0 dx=0 dy=0 dh=0 dv=0
PairPos2: "'kern' Horizontal Kerning lookup 0 subtable 0" uniFEB7 dx=-128 dy=0 dh=-128 dv=0 dx=0 dy=0 dh=0 dv=0
PairPos2: "'kern' Horizontal Kerning lookup 0 subtable 0" uni0634 dx=-128 dy=0 dh=-128 dv=0 dx=0 dy=0 dh=0 dv=0
PairPos2: "'kern' Horizontal Kerning lookup 0 subtable 0" uniFEB3 dx=-128 dy=0 dh=-128 dv=0 dx=0 dy=0 dh=0 dv=0
PairPos2: "'kern' Horizontal Kerning lookup 0 subtable 0" uni0633 dx=-128 dy=0 dh=-128 dv=0 dx=0 dy=0 dh=0 dv=0
PairPos2: "'kern' Horizontal Kerning lookup 0 subtable 0" uni0630 dx=-128 dy=0 dh=-128 dv=0 dx=0 dy=0 dh=0 dv=0
PairPos2: "'kern' Horizontal Kerning lookup 0 subtable 0" uni062F dx=-128 dy=0 dh=-128 dv=0 dx=0 dy=0 dh=0 dv=0
PairPos2: "'kern' Horizontal Kerning lookup 0 subtable 0" uniFEA7 dx=-128 dy=0 dh=-128 dv=0 dx=0 dy=0 dh=0 dv=0
PairPos2: "'kern' Horizontal Kerning lookup 0 subtable 0" uniFEA3 dx=-128 dy=0 dh=-128 dv=0 dx=0 dy=0 dh=0 dv=0
PairPos2: "'kern' Horizontal Kerning lookup 0 subtable 0" uniFE9F dx=-128 dy=0 dh=-128 dv=0 dx=0 dy=0 dh=0 dv=0
PairPos2: "'kern' Horizontal Kerning lookup 0 subtable 0" uniFE9B dx=-128 dy=0 dh=-128 dv=0 dx=0 dy=0 dh=0 dv=0
PairPos2: "'kern' Horizontal Kerning lookup 0 subtable 0" uni062B dx=-128 dy=0 dh=-128 dv=0 dx=0 dy=0 dh=0 dv=0
PairPos2: "'kern' Horizontal Kerning lookup 0 subtable 0" uniFE97 dx=-128 dy=0 dh=-128 dv=0 dx=0 dy=0 dh=0 dv=0
PairPos2: "'kern' Horizontal Kerning lookup 0 subtable 0" uni062A dx=-128 dy=0 dh=-128 dv=0 dx=0 dy=0 dh=0 dv=0
PairPos2: "'kern' Horizontal Kerning lookup 0 subtable 0" uni0629 dx=-128 dy=0 dh=-128 dv=0 dx=0 dy=0 dh=0 dv=0
PairPos2: "'kern' Horizontal Kerning lookup 0 subtable 0" uni0628 dx=-128 dy=0 dh=-128 dv=0 dx=0 dy=0 dh=0 dv=0
PairPos2: "'kern' Horizontal Kerning lookup 0 subtable 0" uni0627 dx=-150 dy=0 dh=-150 dv=0 dx=0 dy=0 dh=0 dv=0
PairPos2: "'kern' Horizontal Kerning lookup 0 subtable 0" uni0622 dx=-150 dy=0 dh=-150 dv=0 dx=0 dy=0 dh=0 dv=0
PairPos2: "'kern' Horizontal Kerning lookup 0 subtable 0" uniFB94 dx=-235 dy=0 dh=-235 dv=0 dx=0 dy=0 dh=0 dv=0
PairPos2: "'kern' Horizontal Kerning lookup 0 subtable 0" uni06AF dx=-235 dy=0 dh=-235 dv=0 dx=0 dy=0 dh=0 dv=0
PairPos2: "'kern' Horizontal Kerning lookup 0 subtable 0" uniFB56 dx=-128 dy=0 dh=-128 dv=0 dx=0 dy=0 dh=0 dv=0
PairPos2: "'kern' Horizontal Kerning lookup 0 subtable 0" uni067E dx=-128 dy=0 dh=-128 dv=0 dx=0 dy=0 dh=0 dv=0
PairPos2: "'kern' Horizontal Kerning lookup 0 subtable 2" uni0648 dx=-43 dy=0 dh=-43 dv=0 dx=0 dy=0 dh=0 dv=0
PairPos2: "'kern' Horizontal Kerning lookup 0 subtable 3" uni06C0 dx=-128 dy=0 dh=-128 dv=0 dx=0 dy=0 dh=0 dv=0
PairPos2: "'kern' Horizontal Kerning lookup 0 subtable 3" uni0621 dx=-128 dy=0 dh=-128 dv=0 dx=0 dy=0 dh=0 dv=0
EndChar

StartChar: uniFEB2
Encoding: 65202 65202 186
Width: 2463
GlyphClass: 2
Flags: HMW
AnchorPoint: "Anchor-7" 634 -763 basechar 0
AnchorPoint: "Anchor-10" 1661 1121 basechar 0
LayerCount: 2
Fore
SplineSet
1315 42 m 257
 1296 -332 1083 -546 693 -547 c 257
 321 -546 91 -355 91 -3 c 256
 91 153 128 310 201 467 c 257
 341 422 l 257
 306 308 289 210 289 131 c 256
 289 -109 448 -196 695 -196 c 256
 937 -196 1131 -86 1131 49 c 260
 1131 107 1044 249 973 363 c 257
 1140 605 l 258
 1153 624 1167 622 1180 598 c 256
 1214 538 1246 486 1283 449 c 257
 1331 396 1384 370 1448 370 c 256
 1543 370 1600 416 1608 507 c 258
 1622 656 l 257
 1760 656 l 257
 1776 513 l 258
 1787 417 1840 370 1934 370 c 256
 2023 370 2071 420 2079 522 c 257
 2091 681 l 257
 2241 681 l 257
 2251 524 l 257
 2259 420 2323 369 2442 369 c 258
 2471 369 l 258
 2488 369 2496 327 2496 243 c 258
 2496 142 l 258
 2496 47 2488 0 2471 0 c 258
 2441 0 l 258
 2316 0 2225 51 2167 155 c 257
 2103 51 2027 0 1940 0 c 256
 1831 0 1746 53 1686 160 c 257
 1619 53 1543 0 1458 0 c 256
 1411 0 1363 14 1315 42 c 257
EndSplineSet
EndChar

StartChar: uniFEB3
Encoding: 65203 65203 187
Width: 1533
GlyphClass: 2
Flags: HMW
AnchorPoint: "Anchor-7" 833 -216 basechar 0
AnchorPoint: "Anchor-10" 783 1220 basechar 0
LayerCount: 2
Fore
SplineSet
1105 370 m 256
 1181 370 1247 399 1247 468 c 260
 1247 527 1213 561 1151 681 c 257
 1303 874 l 258
 1326 904 1335 906 1356 873 c 256
 1425 762 1458 640 1458 507 c 256
 1458 280 1334 0 1105 0 c 256
 1000 0 919 53 859 160 c 257
 792 53 716 0 629 0 c 256
 515 0 431 51 374 154 c 257
 294 51 186 0 49 0 c 258
 -5 0 l 258
 -42 0 -60 51 -60 154 c 258
 -60 224 l 258
 -60 321 -42 369 -5 369 c 258
 58 369 l 258
 207 369 285 416 295 509 c 257
 309 656 l 257
 448 656 l 257
 462 514 l 258
 472 418 528 371 629 371 c 256
 722 371 772 416 781 507 c 257
 794 656 l 257
 933 656 l 257
 949 513 l 258
 960 417 1012 370 1105 370 c 256
EndSplineSet
EndChar

StartChar: uniFEB4
Encoding: 65204 65204 188
Width: 1639
GlyphClass: 2
Flags: HMW
AnchorPoint: "Anchor-7" 853 -213 basechar 0
AnchorPoint: "Anchor-10" 823 1170 basechar 0
LayerCount: 2
Fore
SplineSet
1108 0 m 256
 998 0 919 53 859 160 c 257
 792 53 712 0 626 0 c 256
 512 0 431 51 374 154 c 257
 294 51 186 0 49 0 c 258
 -5 0 l 258
 -42 0 -60 51 -60 154 c 258
 -60 224 l 258
 -60 321 -42 369 -5 369 c 258
 58 369 l 258
 207 369 285 416 295 509 c 257
 309 656 l 257
 448 656 l 257
 462 514 l 258
 472 418 528 371 629 371 c 256
 722 371 772 416 781 507 c 257
 794 656 l 257
 933 656 l 257
 949 513 l 258
 960 417 1012 370 1107 370 c 256
 1195 370 1244 420 1252 522 c 257
 1264 681 l 257
 1413 681 l 257
 1424 523 l 258
 1432 420 1495 369 1615 369 c 258
 1644 369 l 258
 1661 369 1669 325 1669 237 c 258
 1669 142 l 258
 1669 47 1661 0 1644 0 c 258
 1614 0 l 258
 1489 0 1398 51 1339 155 c 257
 1275 51 1195 0 1108 0 c 256
EndSplineSet
EndChar

StartChar: uniFEBA
Encoding: 65210 65210 194
Width: 2649
GlyphClass: 2
Flags: HMW
AnchorPoint: "Anchor-7" 614 -733 basechar 0
AnchorPoint: "Anchor-10" 2143 1225 basechar 0
LayerCount: 2
Fore
SplineSet
1315 40 m 257
 1296 -338 1081 -546 685 -547 c 257
 320 -546 91 -351 91 -3 c 256
 91 153 129 310 201 467 c 257
 342 422 l 257
 307 308 290 210 290 131 c 256
 290 -106 449 -196 691 -196 c 256
 948 -196 1132 -84 1132 45 c 260
 1132 101 1046 247 973 363 c 257
 1139 604 l 258
 1153 623 1166 621 1182 596 c 258
 1247 496 l 257
 1300 427 1368 373 1444 372 c 257
 1615 601 1912 919 2188 919 c 256
 2391 919 2526 794 2526 574 c 256
 2526 493 2506 426 2480 369 c 257
 2654 369 l 258
 2671 369 2679 325 2679 237 c 258
 2679 142 l 258
 2679 47 2671 0 2654 0 c 258
 2620 0 l 258
 2507 0 2396 49 2289 145 c 257
 2158 50 1997 1 1806 1 c 258
 1584 1 l 258
 1474 1 1384 14 1315 40 c 257
1621 370 m 257
 1911 370 l 258
 2145 370 2321 376 2321 469 c 256
 2321 566 2227 614 2100 614 c 256
 1954 614 1781 523 1621 370 c 257
EndSplineSet
EndChar

StartChar: uniFEBB
Encoding: 65211 65211 195
Width: 1692
GlyphClass: 2
Flags: HMW
AnchorPoint: "Anchor-7" 662 -238 basechar 0
AnchorPoint: "Anchor-10" 1218 1214 basechar 0
LayerCount: 2
Fore
SplineSet
1271 917 m 256
 1475 917 1610 792 1609 571 c 257
 1609 205 1282 0 890 0 c 258
 667 0 l 258
 539 0 420 57 320 170 c 257
 227 57 130 0 28 0 c 258
 -5 0 l 258
 -42 0 -60 51 -60 154 c 258
 -60 224 l 258
 -60 321 -42 369 -5 369 c 258
 16 369 l 258
 143 369 213 419 226 521 c 258
 245 681 l 257
 388 681 l 257
 409 524 l 258
 421 430 464 378 527 370 c 257
 696 601 1006 917 1271 917 c 256
704 369 m 261
 995 369 l 258
 1228 369 1404 374 1404 467 c 256
 1404 565 1309 613 1183 613 c 256
 1038 613 864 522 704 369 c 261
EndSplineSet
EndChar

StartChar: uniFEBC
Encoding: 65212 65212 196
Width: 1728
GlyphClass: 2
Flags: HMW
AnchorPoint: "Anchor-7" 679 -227 basechar 0
AnchorPoint: "Anchor-10" 1210 1224 basechar 0
LayerCount: 2
Fore
SplineSet
705 369 m 261
 996 369 l 258
 1229 369 1405 374 1405 467 c 256
 1405 565 1310 613 1184 613 c 256
 1044 613 867 525 705 369 c 261
1272 917 m 256
 1476 917 1611 792 1611 572 c 256
 1611 493 1595 427 1569 369 c 257
 1733 369 l 258
 1750 369 1758 325 1758 237 c 258
 1758 142 l 258
 1758 47 1750 0 1733 0 c 258
 1697 0 l 258
 1586 0 1485 48 1378 144 c 257
 1247 49 1083 0 891 0 c 258
 669 0 l 258
 541 0 420 57 320 170 c 257
 226 57 129 0 28 0 c 258
 -5 0 l 258
 -42 0 -60 51 -60 154 c 258
 -60 224 l 258
 -60 321 -42 369 -5 369 c 258
 16 369 l 258
 143 369 213 419 226 521 c 258
 245 681 l 257
 388 681 l 257
 409 524 l 258
 421 430 465 378 528 370 c 257
 700 609 1016 917 1272 917 c 256
EndSplineSet
EndChar

StartChar: uniFEC2
Encoding: 65218 65218 202
Width: 1588
GlyphClass: 2
Flags: HMW
AnchorPoint: "Anchor-7" 697 -212 basechar 0
AnchorPoint: "Anchor-10" 437 1561 basechar 0
LayerCount: 2
Fore
SplineSet
251 0 m 257
 59 274 l 257
 -1 354 28 369 90 369 c 258
 409 369 l 257
 409 376 409 384 409 392 c 257
 403 679 384 1104 347 1326 c 257
 580 1482 l 257
 626 1514 636 1518 636 1444 c 258
 636 635 l 257
 823 824 991 919 1140 919 c 256
 1345 919 1478 792 1478 572 c 256
 1478 498 1463 430 1435 369 c 257
 1593 369 l 258
 1610 369 1618 325 1618 237 c 258
 1618 142 l 258
 1618 47 1610 0 1593 0 c 258
 1558 0 l 258
 1463 0 1363 49 1252 146 c 257
 1120 51 944 0 759 0 c 257
 251 0 l 257
1273 469 m 256
 1273 549 1202 614 1052 614 c 256
 905 614 733 523 573 370 c 261
 863 370 l 258
 1142 370 1273 385 1273 469 c 256
EndSplineSet
EndChar

StartChar: uniFEC3
Encoding: 65219 65219 203
Width: 1306
GlyphClass: 2
Flags: HMW
AnchorPoint: "Anchor-7" 493 -220 basechar 0
AnchorPoint: "Anchor-10" 225 1536 basechar 0
LayerCount: 2
Fore
SplineSet
1018 469 m 256
 1018 549 947 614 797 614 c 256
 650 614 478 523 318 370 c 261
 608 370 l 258
 887 370 1018 385 1018 469 c 256
-5 0 m 258
 -42 0 -60 51 -60 154 c 258
 -60 224 l 258
 -60 321 -42 369 -5 369 c 258
 154 369 l 257
 154 376 154 383 154 391 c 257
 148 678 129 1104 92 1326 c 257
 324 1482 l 257
 371 1514 381 1518 381 1444 c 258
 381 635 l 257
 568 824 736 919 885 919 c 256
 1090 919 1223 792 1223 572 c 256
 1223 207 894 0 504 0 c 258
 -5 0 l 258
EndSplineSet
EndChar

StartChar: uniFEC4
Encoding: 65220 65220 204
Width: 1335
GlyphClass: 2
Flags: HMW
AnchorPoint: "Anchor-7" 498 -216 basechar 0
AnchorPoint: "Anchor-10" 228 1537 basechar 0
LayerCount: 2
Fore
SplineSet
-5 0 m 258
 -42 0 -60 51 -60 154 c 258
 -60 224 l 258
 -60 321 -42 369 -5 369 c 258
 154 369 l 257
 154 376 154 381 154 391 c 257
 148 678 129 1104 92 1326 c 257
 324 1482 l 258
 371 1514 381 1518 381 1444 c 258
 381 635 l 257
 568 824 736 919 885 919 c 256
 1090 919 1223 792 1223 572 c 256
 1223 497 1208 430 1180 369 c 257
 1344 369 l 258
 1361 369 1369 325 1369 237 c 258
 1369 142 l 258
 1369 47 1361 0 1344 0 c 258
 1309 0 l 258
 1214 0 1108 49 997 147 c 257
 864 51 685 0 504 0 c 258
 -5 0 l 258
1018 469 m 256
 1018 549 947 614 797 614 c 256
 650 614 478 523 318 370 c 261
 608 370 l 258
 887 370 1018 385 1018 469 c 256
EndSplineSet
EndChar

StartChar: uniFECA
Encoding: 65226 65226 210
Width: 1282
GlyphClass: 2
Flags: HMW
AnchorPoint: "Anchor-7" 577 -865 basechar 0
AnchorPoint: "Anchor-10" 660 1215 basechar 0
LayerCount: 2
Fore
SplineSet
718 921 m 256
 951 921 1069 862 1069 745 c 256
 1069 647 1017 557 913 473 c 257
 928 399 1032 369 1247 369 c 258
 1287 369 l 258
 1304 369 1312 325 1312 237 c 258
 1312 142 l 258
 1312 47 1304 0 1287 0 c 258
 1258 0 l 258
 957 0 788 110 732 332 c 257
 432 220 266 73 266 -110 c 260
 266 -295 436 -387 740 -387 c 256
 897 -387 1033 -373 1151 -355 c 256
 1206 -347 1194 -390 1174 -426 c 258
 1082 -591 l 257
 1054 -639 1016 -664 968 -678 c 257
 913 -697 844 -698 759 -698 c 256
 341 -698 92 -543 92 -139 c 256
 92 179 274 421 625 592 c 257
 592 618 488 643 314 666 c 257
 314 837 l 257
 405 892 540 921 718 921 c 256
EndSplineSet
EndChar

StartChar: uniFECB
Encoding: 65227 65227 211
Width: 1012
GlyphClass: 2
Flags: HMW
AnchorPoint: "Anchor-7" 508 -223 basechar 0
AnchorPoint: "Anchor-10" 482 1275 basechar 0
LayerCount: 2
Fore
SplineSet
100 587 m 256
 100 794 281 1026 510 1026 c 257
 648 1026 760 974 844 870 c 257
 808 693 l 257
 717 730 637 748 568 748 c 256
 419 748 282 638 282 580 c 260
 282 548 430 423 518 413 c 257
 879 496 l 257
 923 507 947 494 938 454 c 258
 875 177 l 257
 565 94 247 0 55 0 c 258
 -5 0 l 258
 -42 0 -60 51 -60 154 c 258
 -60 224 l 258
 -60 321 -42 369 -5 369 c 258
 177 369 l 257
 131 438 100 513 100 587 c 256
EndSplineSet
EndChar

StartChar: uniFECC
Encoding: 65228 65228 212
Width: 985
GlyphClass: 2
Flags: HMW
AnchorPoint: "Anchor-7" 500 -222 basechar 0
AnchorPoint: "Anchor-10" 486 1196 basechar 0
LayerCount: 2
Fore
SplineSet
521 874 m 256
 754 874 870 815 870 697 c 256
 870 630 805 544 694 440 c 257
 758 395 845 369 950 369 c 258
 990 369 l 258
 1007 369 1015 325 1015 237 c 258
 1015 142 l 258
 1015 47 1007 0 990 0 c 258
 947 0 l 258
 771 0 633 63 534 188 c 257
 406 63 251 0 67 0 c 258
 -5 0 l 258
 -42 0 -60 51 -60 154 c 258
 -60 224 l 258
 -60 321 -42 369 -5 369 c 258
 65 369 l 258
 258 369 408 394 475 444 c 261
 417 545 285 603 115 619 c 257
 115 790 l 257
 206 846 341 874 521 874 c 256
EndSplineSet
EndChar

StartChar: uniFEDA
Encoding: 65242 65242 226
Width: 1941
GlyphClass: 2
Flags: HMW
AnchorPoint: "Anchor-7" 885 -196 basechar 0
AnchorPoint: "Anchor-10" 924 1502 basechar 0
LayerCount: 2
Fore
SplineSet
1181 855 m 256
 1181 703 1053 623 897 623 c 256
 824 623 732 641 652 666 c 257
 669 843 l 257
 754 813 834 797 911 797 c 256
 987 797 1057 813 1059 857 c 257
 1057 877 1017 896 938 913 c 256
 815 940 754 1011 754 1127 c 256
 754 1267 866 1346 1088 1376 c 256
 1139 1383 1166 1368 1149 1319 c 258
 1109 1203 l 257
 989 1191 869 1176 868 1120 c 256
 867 1088 933 1077 991 1067 c 256
 1115 1045 1181 983 1181 855 c 256
1534 618 m 256
 1534 769 1511 1156 1486 1325 c 257
 1728 1481 l 258
 1769 1508 1773 1506 1773 1441 c 258
 1773 727 l 258
 1773 522 1821 382 1916 382 c 258
 1946 382 l 257
 1963 383 1971 334 1971 237 c 258
 1971 142 l 258
 1971 47 1963 0 1946 0 c 258
 1919 0 l 258
 1782 0 1685 65 1626 187 c 257
 1491 48 1233 0 846 0 c 256
 422 0 89 106 89 484 c 256
 89 624 122 758 188 886 c 257
 307 839 l 257
 286 763 275 697 275 642 c 257
 275 416 517 366 858 366 c 256
 1228 366 1418 399 1492 456 c 256
 1533 488 1534 546 1534 618 c 256
EndSplineSet
EndChar

StartChar: uniFEDB
Encoding: 65243 65243 227
Width: 996
GlyphClass: 2
Flags: HMW
AnchorPoint: "Anchor-7" 305 -238 basechar 0
AnchorPoint: "Anchor-10" 271 1519 basechar 0
LayerCount: 2
Fore
SplineSet
-5 0 m 258
 -42 0 -60 51 -60 154 c 258
 -60 224 l 258
 -60 321 -42 369 -5 369 c 258
 91 369 l 258
 312 369 512 385 513 487 c 261
 513 548 319 712 21 945 c 257
 85 1245 l 257
 904 1533 l 257
 934 1544 939 1529 934 1499 c 258
 897 1246 l 257
 337 1055 l 257
 595 845 723 657 723 487 c 256
 723 145 465 0 95 0 c 258
 -5 0 l 258
EndSplineSet
EndChar

StartChar: uniFEDC
Encoding: 65244 65244 228
Width: 1212
GlyphClass: 2
Flags: HMW
AnchorPoint: "Anchor-7" 315 -221 basechar 0
AnchorPoint: "Anchor-10" 303 1491 basechar 0
LayerCount: 2
Fore
SplineSet
21 945 m 257
 85 1245 l 257
 904 1533 l 257
 934 1544 939 1529 934 1499 c 258
 897 1246 l 257
 337 1055 l 257
 425 978 578 824 797 590 c 256
 935 443 1069 369 1201 369 c 258
 1217 369 l 258
 1234 369 1242 325 1242 237 c 258
 1242 142 l 258
 1242 47 1234 0 1217 0 c 258
 1201 0 l 258
 1006 0 822 102 666 304 c 261
 579 101 391 0 101 0 c 258
 -5 0 l 258
 -42 0 -60 51 -60 154 c 258
 -60 224 l 258
 -60 321 -42 369 -5 369 c 258
 98 369 l 258
 313 369 505 381 505 488 c 256
 505 555 314 718 21 945 c 257
EndSplineSet
EndChar

StartChar: uniFEDE
Encoding: 65246 65246 230
Width: 1413
GlyphClass: 2
Flags: HMW
AnchorPoint: "Anchor-7" 659 -722 basechar 0
AnchorPoint: "Anchor-10" 566 1004 basechar 0
LayerCount: 2
Fore
SplineSet
668 -531 m 256
 314 -531 85 -324 85 14 c 256
 85 175 123 331 195 484 c 257
 335 439 l 257
 301 324 283 227 283 147 c 256
 283 -83 437 -179 674 -179 c 256
 883 -179 1038 -103 1038 99 c 260
 1038 286 986 711 927 1324 c 257
 1149 1470 l 257
 1199 1504 1216 1500 1218 1428 c 258
 1243 606 l 257
 1247 448 1299 369 1392 369 c 258
 1418 369 l 258
 1435 369 1443 325 1443 237 c 258
 1443 142 l 258
 1443 47 1435 0 1418 0 c 258
 1388 0 l 258
 1327 0 1269 17 1233 48 c 257
 1223 -315 1045 -531 668 -531 c 256
EndSplineSet
EndChar

StartChar: uniFEDF
Encoding: 65247 65247 231
Width: 586
GlyphClass: 2
Flags: HMW
AnchorPoint: "Anchor-7" 183 -242 basechar 0
AnchorPoint: "Anchor-10" 249 1544 basechar 0
LayerCount: 2
Fore
SplineSet
-5 369 m 258
 17 369 l 258
 180 369 215 398 215 544 c 256
 215 768 188 1011 144 1325 c 257
 373 1477 l 258
 420 1509 434 1518 436 1444 c 256
 446 1149 461 814 461 559 c 256
 461 215 335 0 18 0 c 258
 -5 0 l 258
 -42 0 -60 51 -60 154 c 258
 -60 224 l 258
 -60 321 -42 369 -5 369 c 258
EndSplineSet
EndChar

StartChar: uniFEE0
Encoding: 65248 65248 232
Width: 651
GlyphClass: 2
Flags: HMW
AnchorPoint: "Anchor-7" 295 -238 basechar 0
AnchorPoint: "Anchor-10" 291 1547 basechar 0
LayerCount: 2
Fore
SplineSet
-5 369 m 258
 29 369 l 258
 207 369 225 441 225 611 c 256
 225 860 201 1095 175 1326 c 257
 414 1482 l 258
 456 1510 467 1508 467 1443 c 258
 467 617 l 257
 468 424 478 369 621 369 c 258
 656 369 l 258
 673 369 681 325 681 237 c 258
 681 142 l 258
 681 47 673 0 656 0 c 258
 610 0 l 258
 475 0 384 54 326 162 c 257
 251 54 153 0 44 0 c 258
 -5 0 l 258
 -42 0 -60 51 -60 154 c 258
 -60 224 l 258
 -60 321 -42 369 -5 369 c 258
EndSplineSet
EndChar

StartChar: uniFEE2
Encoding: 65250 65250 234
Width: 1281
GlyphClass: 2
Flags: HMW
AnchorPoint: "Anchor-7" 227 -758 basechar 0
AnchorPoint: "Anchor-10" 623 1141 basechar 0
LayerCount: 2
Fore
SplineSet
820 95 m 257
 893 95 946 112 947 174 c 257
 947 231 834 324 671 427 c 261
 669 389 667 338 667 304 c 260
 667 173 693 96 820 95 c 257
1272 369 m 258
 1286 369 l 258
 1303 369 1311 325 1311 237 c 258
 1311 142 l 258
 1311 47 1303 0 1286 0 c 258
 1268 0 l 258
 1210 0 1154 22 1101 66 c 257
 1048 -110 948 -203 809 -203 c 257
 584 -202 490 -50 490 230 c 256
 490 265 491 300 492 336 c 257
 409 307 345 259 301 190 c 257
 315 -297 l 257
 319 -408 278 -505 193 -592 c 257
 126 -662 108 -650 104 -576 c 256
 96 -395 87 -155 87 29 c 256
 87 374 200 566 529 634 c 257
 550 732 575 831 639 784 c 258
 1121 426 l 258
 1173 388 1223 369 1272 369 c 258
EndSplineSet
EndChar

StartChar: uniFEE3
Encoding: 65251 65251 235
Width: 1022
GlyphClass: 2
Flags: HMW
AnchorPoint: "Anchor-7" 512 -263 basechar 0
AnchorPoint: "Anchor-10" 540 1154 basechar 0
LayerCount: 2
Fore
SplineSet
-5 0 m 258
 -42 0 -60 51 -60 154 c 258
 -60 224 l 258
 -60 321 -42 369 -5 369 c 258
 25 369 l 258
 106 369 184 411 248 502 c 256
 366 668 470 814 609 814 c 256
 807 814 939 565 939 336 c 256
 939 126 774 -26 673 -26 c 256
 576 -26 446 40 296 171 c 257
 201 57 107 0 13 0 c 258
 -5 0 l 258
689 304 m 256
 729 304 762 323 762 364 c 260
 762 448 682 567 610 567 c 256
 550 567 500 503 459 444 c 257
 558 351 634 304 689 304 c 256
EndSplineSet
EndChar

StartChar: uniFEE4
Encoding: 65252 65252 236
Width: 1145
GlyphClass: 2
Flags: HMW
AnchorPoint: "Anchor-7" 519 -275 basechar 0
AnchorPoint: "Anchor-10" 589 1104 basechar 0
LayerCount: 2
Fore
SplineSet
460 385 m 257
 548 305 634 253 690 253 c 256
 729 253 770 279 770 318 c 260
 770 401 673 513 606 513 c 256
 557 513 497 434 460 385 c 257
-5 369 m 258
 25 369 l 258
 127 369 207 405 265 478 c 256
 368 606 484 747 617 747 c 256
 767 747 858 609 943 455 c 256
 975 397 1038 369 1132 369 c 258
 1150 369 l 258
 1167 369 1175 321 1175 224 c 258
 1175 142 l 258
 1175 47 1167 0 1150 0 c 258
 1126 0 l 258
 1052 0 974 35 895 103 c 257
 855 31 768 -75 662 -75 c 256
 562 -75 437 -9 290 123 c 257
 226 41 136 0 21 0 c 258
 -5 0 l 258
 -42 0 -60 51 -60 154 c 258
 -60 224 l 258
 -60 321 -42 369 -5 369 c 258
EndSplineSet
EndChar

StartChar: uniFEEA
Encoding: 65258 65258 242
Width: 1038
GlyphClass: 2
Flags: W
HStem: 0 21G<925.5 1051.5>
VStem: 83 173<401.5 600.305>
AnchorPoint: "Anchor-7" 458 -210 basechar 0
AnchorPoint: "Anchor-10" 648 1392 basechar 0
LayerCount: 2
Fore
SplineSet
548 477 m 261
 575 477 602 478 630 479 c 261
 577 716 l 261
 422 668 256 607 256 545 c 256
 256 491 416 477 548 477 c 261
1043 0 m 258
 1011 0 l 258
 840 0 738 87 672 254 c 261
 503 111 l 257
 407 118 138 140 107 231 c 257
 91 273 83 349 83 454 c 257
 84 692 182 770 538 934 c 261
 521 1017 l 261
 644 1158 l 257
 689 1204 698 1206 713 1130 c 258
 826 532 l 258
 846 423 907 369 1007 369 c 258
 1043 369 l 258
 1060 369 1068 325 1068 237 c 258
 1068 142 l 258
 1068 47 1060 0 1043 0 c 258
EndSplineSet
EndChar

StartChar: uniFEEB
Encoding: 65259 65259 243
Width: 1239
GlyphClass: 2
Flags: HMW
AnchorPoint: "Anchor-7" 526 -226 basechar 0
AnchorPoint: "Anchor-10" 529 1411 basechar 0
LayerCount: 2
Fore
SplineSet
609 692 m 256
 609 758 554 802 482 802 c 256
 428 802 308 729 308 645 c 256
 308 587 395 539 514 508 c 257
 563 541 609 613 609 692 c 256
763 679 m 257
 759 584 729 508 674 448 c 257
 790 404 853 382 923 368 c 261
 948 404 960 444 960 477 c 256
 960 561 875 625 763 679 c 257
915 90 m 256
 806 90 667 120 500 176 c 257
 370 59 220 0 48 0 c 258
 -5 0 l 258
 -42 0 -60 51 -60 154 c 258
 -60 224 l 258
 -60 321 -42 369 -5 369 c 256
 72 369 145 369 219 370 c 257
 152 408 118 468 118 550 c 256
 118 699 216 850 332 933 c 257
 197 994 l 257
 278 1248 l 257
 681 1047 l 257
 975 899 1156 754 1156 513 c 256
 1156 349 1025 90 915 90 c 256
EndSplineSet
EndChar

StartChar: uniFEEC
Encoding: 65260 65260 244
Width: 943
GlyphClass: 2
Flags: HMW
AnchorPoint: "Anchor-7" 331 -672 basechar 0
AnchorPoint: "Anchor-10" 473 1238 basechar 0
LayerCount: 2
Fore
SplineSet
304 372 m 257
 506 383 617 421 617 488 c 256
 617 527 549 608 454 704 c 257
 388 602 332 491 304 372 c 257
765 568 m 256
 765 280 555 59 323 2 c 257
 380 -99 452 -171 518 -215 c 257
 581 110 750 369 932 369 c 258
 948 369 l 258
 965 369 973 325 973 237 c 258
 973 142 l 258
 973 47 965 0 948 0 c 258
 914 0 l 258
 794 0 723 -72 723 -214 c 260
 723 -277 745 -352 767 -441 c 257
 563 -580 l 257
 343 -422 203 -229 144 0 c 257
 -5 0 l 258
 -42 0 -60 51 -60 154 c 258
 -60 224 l 258
 -60 321 -42 369 -5 369 c 257
 136 368 l 257
 173 577 319 992 474 992 c 256
 605 992 765 705 765 568 c 256
EndSplineSet
EndChar

StartChar: uniFEEE
Encoding: 65262 65262 246
Width: 835
GlyphClass: 2
Flags: HMW
AnchorPoint: "Anchor-7" 332 -682 basechar 0
AnchorPoint: "Anchor-10" 417 1132 basechar 0
LayerCount: 2
Fore
SplineSet
421 361 m 256
 471 361 524 361 575 361 c 257
 543 476 478 545 384 546 c 257
 319 545 258 502 258 429 c 256
 258 365 323 361 421 361 c 256
68 -337 m 260
 281 -249 469 -107 531 0 c 1
 261 1 83 61 83 304 c 256
 83 532 199 820 418 820 c 256
 623 820 728 600 743 369 c 257
 840 369 l 258
 857 369 865 325 865 237 c 258
 865 142 l 258
 865 47 857 -2.08189955855e-15 840 0 c 258
 729.661132812 0 l 257
 664.497727772 -303.295412054 481.211914062 -460.393554688 336 -533 c 260
 292 -555 222.51171875 -545.153320312 175 -519 c 262
 66 -459 l 262
 -78 -380 0.033203125 -365.080078125 68 -337 c 260
EndSplineSet
EndChar

StartChar: uniFEF0
Encoding: 65264 65264 248
Width: 1459
GlyphClass: 2
Flags: HMW
AnchorPoint: "Anchor-7" 635 -745 basechar 0
AnchorPoint: "Anchor-10" 722 793 basechar 0
LayerCount: 2
Fore
SplineSet
702 -202 m 256
 969 -202 1170 -113 1170 -58 c 260
 1170 -23 1020 3 867 19 c 257
 827 24 813 44 823 77 c 258
 909 369 l 257
 1464 369 l 258
 1481 369 1489 325 1489 237 c 258
 1489 142 l 258
 1489 47 1481 0 1464 0 c 258
 1324 0 l 257
 1344 -26 1353 -59 1353 -101 c 256
 1353 -390 1006 -548 687 -548 c 257
 316 -548 91 -355 91 -3 c 256
 91 153 129 310 201 467 c 257
 342 422 l 257
 307 308 290 210 290 131 c 256
 290 -111 456 -202 702 -202 c 256
EndSplineSet
EndChar

StartChar: uniFEFB
Encoding: 65275 65275 259
Width: 1231
GlyphClass: 3
Flags: HMW
AnchorPoint: "Anchor-6" 251 -256 baselig 1
AnchorPoint: "Anchor-6" 887 -172 baselig 0
AnchorPoint: "Anchor-9" 204 1438 baselig 1
AnchorPoint: "Anchor-9" 902 1532 baselig 0
LayerCount: 2
Fore
SplineSet
490 312 m 257
 396 625 253 914 61 1172 c 257
 265 1336 l 258
 289 1356 289 1355 304 1331 c 256
 457 1086 595 773 717 391 c 257
 810 442 857 519 857 624 c 256
 857 768 829 1041 795 1327 c 257
 1032 1478 l 257
 1074 1506 1087 1512 1088 1456 c 256
 1093 1197 1100 908 1100 678 c 256
 1100 166 789 -37 254 -37 c 257
 68 211 l 258
 43 244 27 280 82 280 c 257
 256 282 391 290 490 312 c 257
EndSplineSet
Ligature2: "'rlig' Required Ligatures in Arabic lookup 4 subtable" uniFEDF uniFE8E
EndChar

StartChar: uniFEFC
Encoding: 65276 65276 260
Width: 1281
GlyphClass: 3
Flags: HMW
AnchorPoint: "Anchor-9" 902 1532 baselig 0
AnchorPoint: "Anchor-6" 895 -201 baselig 0
AnchorPoint: "Anchor-6" 223 -248 baselig 1
AnchorPoint: "Anchor-9" 204 1438 baselig 1
LayerCount: 2
Fore
SplineSet
717 391 m 257
 813 444 857 519 857 625 c 256
 857 741 834 979 795 1327 c 257
 1034 1479 l 257
 1076 1507 1086 1510 1087 1454 c 258
 1100 702 l 257
 1103 485 1124 369 1256 369 c 258
 1286 369 l 258
 1303 369 1311 325 1311 237 c 258
 1311 142 l 258
 1311 47 1303 0 1286 0 c 258
 1243 0 l 258
 1093 0 989 61 930 183 c 257
 789 36 564 -37 254 -37 c 257
 68 211 l 258
 43 245 27 280 82 280 c 257
 256 281 390 290 490 312 c 257
 396 625 253 914 61 1172 c 257
 265 1336 l 258
 289 1356 289 1356 304 1331 c 256
 462 1074 599 760 717 391 c 257
EndSplineSet
LCarets2: 1 0
Ligature2: "'rlig' Required Ligatures in Arabic lookup 4 subtable" uniFEE0 uniFE8E
EndChar

StartChar: arabic_dot
Encoding: 65536 -1 261
Width: 237
VWidth: 2124
GlyphClass: 2
Flags: HMW
LayerCount: 2
Fore
SplineSet
124.311523438 288.211914062 m 6
 278.231445312 134.291992188 l 6
 283.430664062 129.091796875 286.55078125 127.01171875 277.19140625 117.65234375 c 6
 125.3515625 -35.2275390625 l 6
 119.111328125 -41.4677734375 115.991210938 -42.5078125 108.7109375 -35.2275390625 c 6
 -42.0888671875 115.572265625 l 6
 -52.4892578125 125.971679688 -53.529296875 127.01171875 -45.208984375 135.33203125 c 6
 107.670898438 288.211914062 l 6
 115.991210938 296.532226562 118.071289062 294.452148438 124.311523438 288.211914062 c 6
EndSplineSet
EndChar

StartChar: arabic_2dots
Encoding: 65537 -1 262
Width: 608
VWidth: 2086
GlyphClass: 2
Flags: HMW
LayerCount: 2
Fore
SplineSet
472.385742188 272.946289062 m 2
 615.185546875 130.146484375 l 2
 620.28515625 125.045898438 623.345703125 123.005859375 614.166015625 113.826171875 c 2
 473.405273438 -27.9541015625 l 2
 467.28515625 -34.07421875 464.225585938 -35.09375 457.0859375 -27.9541015625 c 2
 317.345703125 112.805664062 l 2
 307.145507812 123.005859375 306.125976562 123.005859375 314.28515625 131.166015625 c 2
 456.065429688 272.946289062 l 2
 464.225585938 281.106445312 466.265625 279.06640625 472.385742188 272.946289062 c 2
142.92578125 272.946289062 m 2
 285.725585938 130.146484375 l 2
 290.825195312 125.045898438 293.885742188 123.005859375 284.706054688 113.826171875 c 2
 143.9453125 -27.9541015625 l 2
 137.825195312 -34.07421875 134.765625 -35.09375 127.625976562 -27.9541015625 c 2
 -12.1142578125 112.805664062 l 2
 -22.314453125 123.005859375 -23.333984375 123.005859375 -15.1748046875 131.166015625 c 2
 126.60546875 272.946289062 l 2
 134.765625 281.106445312 136.805664062 279.06640625 142.92578125 272.946289062 c 2
EndSplineSet
EndChar

StartChar: arabic_3dots
Encoding: 65538 -1 263
Width: 581
GlyphClass: 2
Flags: HMW
LayerCount: 2
Fore
SplineSet
132 238 m 2
 265 105 l 2
 270 100 273 98 264 89 c 2
 133 -43 l 2
 127 -49 124 -50 117 -43 c 2
 -13 88 l 2
 -23 98 -24 98 -16 106 c 2
 116 238 l 2
 124 246 126 244 132 238 c 2
298 479 m 2
 431 346 l 2
 436 341 439 339 430 330 c 2
 299 198 l 2
 293 192 290 191 283 198 c 2
 153 329 l 2
 143 339 142 339 150 347 c 2
 282 479 l 2
 290 487 292 485 298 479 c 2
464 238 m 2
 597 105 l 2
 602 100 605 98 596 89 c 2
 465 -43 l 2
 459 -49 456 -50 449 -43 c 2
 319 88 l 2
 309 98 308 98 316 106 c 2
 448 238 l 2
 456 246 458 244 464 238 c 2
EndSplineSet
EndChar

StartChar: arabic_3dots_a
Encoding: 65539 -1 264
Width: 628
GlyphClass: 2
Flags: HMW
LayerCount: 2
Fore
SplineSet
323 36 m 6
 454 -96 l 6
 463 -105 460 -107 455 -112 c 6
 322 -245 l 6
 316 -251 314 -253 306 -245 c 6
 174 -113 l 6
 166 -105 167 -105 177 -95 c 6
 307 36 l 6
 314 43 317 42 323 36 c 6
489 277 m 6
 620 145 l 6
 629 136 626 134 621 129 c 6
 488 -4 l 6
 482 -10 480 -12 472 -4 c 6
 340 128 l 6
 332 136 333 136 343 146 c 6
 473 277 l 6
 480 284 483 283 489 277 c 6
157 277 m 6
 288 145 l 6
 297 136 294 134 289 129 c 6
 156 -4 l 6
 150 -10 148 -12 140 -4 c 6
 8 128 l 6
 0 136 1 136 11 146 c 6
 141 277 l 6
 148 284 151 283 157 277 c 6
EndSplineSet
EndChar

StartChar: uni066E.fina
Encoding: 65540 -1 265
Width: 1942
GlyphClass: 2
Flags: HMW
AnchorPoint: "Anchor-7" 975 -368 basechar 0
AnchorPoint: "Anchor-10" 1045 1800 basechar 0
LayerCount: 2
Fore
SplineSet
837 0 m 256
 420 0 89 110 89 484 c 256
 89 620 122 751 185 876 c 257
 313 833 l 257
 292 759 282 695 282 641 c 256
 282 415 526 366 872 366 c 256
 1251 366 1538 433 1602 666 c 257
 1729 645 l 257
 1724 609 1720 583 1720 563 c 256
 1720 434 1790 369 1929 369 c 258
 1947 369 l 258
 1964 369 1972 325 1972 237 c 258
 1972 142 l 258
 1972 47 1964 0 1947 0 c 258
 1930 0 l 258
 1743 0 1624 77 1571 232 c 257
 1421 77 1176 0 837 0 c 256
EndSplineSet
EndChar

StartChar: uni06A1.fina
Encoding: 65543 -1 266
Width: 1892
GlyphClass: 2
Flags: HMW
AnchorPoint: "Anchor-7" 888 -453 basechar 0
AnchorPoint: "Anchor-10" 751 1980 basechar 0
LayerCount: 2
Fore
SplineSet
818 0 m 256
 415 0 89 117 89 485 c 256
 89 621 122 751 185 876 c 257
 313 833 l 257
 292 759 282 695 282 641 c 256
 282 421 514 366 826 366 c 256
 1009 366 1147 376 1238 397 c 257
 1177 468 1145 549 1145 639 c 257
 1146 832 1300 1040 1481 1040 c 256
 1633 1040 1792 838 1792 655 c 256
 1792 556 1755 468 1683 390 c 257
 1721 377 1782 370 1868 370 c 258
 1899 370 l 258
 1914 370 1922 325 1922 237 c 258
 1922 142 l 258
 1922 47 1914 0 1899 0 c 258
 1865 0 l 258
 1720 0 1587 59 1463 176 c 257
 1308 59 1093 0 818 0 c 256
1466 737 m 256
 1411 737 1314 651 1313 596 c 261
 1314 528 1441 461 1469 461 c 256
 1516 461 1624 555 1624 604 c 256
 1624 657 1530 737 1466 737 c 256
EndSplineSet
EndChar

StartChar: uni06A1.init
Encoding: 65544 -1 267
Width: 829
GlyphClass: 2
Flags: HMW
AnchorPoint: "Anchor-7" 435 -364 basechar 0
AnchorPoint: "Anchor-10" 487 2022 basechar 0
LayerCount: 2
Fore
SplineSet
-9 369 m 258
 188 369 l 262
 504 369 566 398 584 502 c 257
 519 491 446 484 384 484 c 256
 192 484 104 562 104 731 c 256
 104 978 219 1203 418 1203 c 256
 664 1203 753 883 753 579 c 256
 753 174 583 0 193 0 c 258
 -9 0 l 258
 -43 0 -60 51 -60 154 c 258
 -60 224 l 258
 -60 321 -43 369 -9 369 c 258
408 758 m 256
 472 758 541 764 578 774 c 257
 545 886 482 941 398 941 c 256
 333 941 265 894 265 823 c 256
 265 767 329 758 408 758 c 256
EndSplineSet
EndChar

StartChar: uni06A1.medi
Encoding: 65545 -1 268
Width: 907
GlyphClass: 2
Flags: HMW
AnchorPoint: "Anchor-7" 698 -357 basechar 0
AnchorPoint: "Anchor-10" 758 1702 basechar 0
LayerCount: 2
Fore
SplineSet
-5 369 m 258
 24 369 l 258
 119 369 196 380 253 404 c 257
 191 474 159 555 159 645 c 257
 160 838 315 1046 495 1046 c 256
 648 1046 806 844 806 661 c 256
 806 562 769 474 697 397 c 257
 742 378 805 369 882 369 c 258
 912 369 l 258
 929 369 937 325 937 237 c 258
 937 142 l 258
 937 47 929 0 912 0 c 258
 874 0 l 258
 733 0 600 61 476 182 c 257
 342 61 192 0 25 0 c 258
 -5 0 l 258
 -42 0 -60 51 -60 154 c 258
 -60 224 l 258
 -60 321 -42 369 -5 369 c 258
480 743 m 256
 425 743 328 657 327 602 c 261
 328 534 455 467 483 467 c 256
 530 467 639 561 639 609 c 256
 639 663 545 743 480 743 c 256
EndSplineSet
EndChar

StartChar: uni066F.fina
Encoding: 65546 -1 269
Width: 1425
GlyphClass: 2
Flags: HMW
AnchorPoint: "Anchor-7" 672 -763 basechar 0
AnchorPoint: "Anchor-10" 983 1187 basechar 0
LayerCount: 2
Fore
SplineSet
984 364 m 256
 1040 364 1101 364 1159 364 c 257
 1127 479 1062 548 969 548 c 256
 904 548 843 505 842 431 c 261
 842 381 901 364 984 364 c 256
667 304 m 256
 667 534 782 820 1002 820 c 256
 1203 820 1312 598 1325 370 c 257
 1430 369 l 257
 1447 369 1455 325 1455 237 c 258
 1455 142 l 258
 1455 47 1447 0 1430 0 c 258
 1320 0 l 257
 1306 -359 1071 -547 690 -547 c 256
 311 -547 86 -360 86 -3 c 256
 86 152 123 310 195 467 c 257
 335 422 l 257
 301 308 283 211 283 131 c 256
 283 -113 439 -196 699 -196 c 256
 925 -196 1126 -141 1163 0 c 257
 1040 0 l 258
 790 0 667 99 667 304 c 256
EndSplineSet
EndChar

StartChar: arabic_gaf_bar
Encoding: 65550 -1 270
Width: 788
GlyphClass: 2
Flags: HMW
LayerCount: 2
Fore
SplineSet
731 2046 m 2
 713 1944 l 1
 9 1684 l 1
 32 1813 l 1
 708 2068 l 2
 728 2075 735 2068 731 2046 c 2
EndSplineSet
EndChar

StartChar: guillemotleft
Encoding: 171 171 279
Width: 1289
Flags: HMW
LayerCount: 2
Fore
SplineSet
361 17 m 258
 174 275 81 431 81 485 c 256
 81 542 175 700 362 959 c 258
 386 992 l 257
 665 992 l 257
 598 895 l 258
 445 674 368 538 368 485 c 257
 368 435 445 299 598 79 c 258
 666 -18 l 257
 386 -18 l 257
 361 17 l 258
875 19 m 258
 690 276 598 430 598 481 c 256
 598 540 690 699 877 958 c 258
 902 992 l 257
 1182 992 l 257
 1114 895 l 258
 961 674 884 538 884 487 c 257
 884 436 961 299 1114 79 c 258
 1182 -18 l 257
 902 -18 l 257
 875 19 l 258
EndSplineSet
EndChar

StartChar: guillemotright
Encoding: 187 187 280
Width: 1289
Flags: HMW
LayerCount: 2
Fore
SplineSet
414 19 m 258
 387 -18 l 257
 107 -18 l 257
 175 79 l 258
 328 299 405 436 405 487 c 257
 405 538 328 674 175 895 c 258
 107 992 l 257
 387 992 l 257
 412 958 l 258
 598 699 691 540 691 481 c 256
 691 430 599 276 414 19 c 258
929 17 m 256
 903 -18 l 257
 623 -18 l 257
 691 79 l 258
 844 299 921 435 921 485 c 257
 921 538 844 674 691 895 c 258
 624 992 l 257
 903 992 l 257
 927 959 l 258
 1115 700 1208 542 1208 485 c 256
 1208 431 1115 275 929 17 c 256
EndSplineSet
EndChar

StartChar: exclam
Encoding: 33 33 289
Width: 688
Flags: HMW
LayerCount: 2
Fore
SplineSet
438 632 m 258
 433 582 424 558 391 558 c 258
 305 558 l 262
 270 558 259 583 254 633 c 258
 174 1287 l 258
 172 1301 171 1315 171 1328 c 256
 171 1434 226 1486 334 1486 c 258
 363 1486 l 258
 462 1486 511 1433 511 1326 c 256
 511 1314 511 1301 510 1287 c 258
 438 632 l 258
345 0 m 256
 236 0 147 89 147 198 c 256
 147 306 236 395 345 395 c 256
 453 395 542 306 542 198 c 256
 542 89 453 0 345 0 c 256
EndSplineSet
EndChar

StartChar: period
Encoding: 46 46 290
Width: 688
Flags: HMW
LayerCount: 2
Fore
SplineSet
344 0 m 256
 235 0 146 89 146 198 c 256
 146 306 235 395 344 395 c 256
 453 395 542 306 542 198 c 256
 542 89 453 0 344 0 c 256
EndSplineSet
EndChar

StartChar: colon
Encoding: 58 58 291
Width: 688
Flags: HMW
LayerCount: 2
Fore
SplineSet
344 685 m 256
 235 685 147 774 147 883 c 256
 147 991 235 1080 344 1080 c 256
 453 1080 542 991 542 883 c 256
 542 774 453 685 344 685 c 256
344 0 m 256
 235 0 147 89 147 198 c 256
 147 306 235 395 344 395 c 256
 453 395 542 306 542 198 c 256
 542 89 453 0 344 0 c 256
EndSplineSet
EndChar

StartChar: uniFDFC
Encoding: 65020 65020 292
Width: 2658
Flags: HMW
LayerCount: 2
Fore
SplineSet
1534 224 m 257
 1706 52 l 257
 1534 -120 l 257
 1362 52 l 257
 1534 224 l 257
1888 224 m 257
 2059 52 l 257
 1888 -120 l 257
 1716 52 l 257
 1888 224 l 257
2339 753 m 257
 2459 609 2524 389 2524 215 c 256
 2524 -114 2279 -405 2142 -432 c 261
 2113 -441 2078.48730469 -438.72265625 2016 -416 c 260
 1972 -400 1940 -388 1910 -370 c 260
 1787.64550781 -296.586914062 1787 -305 1897 -250 c 261
 2161 -123 2331 34 2331 173 c 256
 2331 233 2272 325 2145 479 c 257
 2339 753 l 257
1283 879 m 256
 1283 1053 1272 1221 1251 1309 c 257
 1456 1455 l 258
 1490 1479 1502 1479 1504 1431 c 256
 1507 1300 1507 1068 1507 926 c 256
 1507 739 1519 681 1651 681 c 258
 1731 681 l 258
 1805 681 1854 702 1854 763 c 256
 1854 804 1825 864 1791 925 c 257
 1921 1083 l 258
 1946 1112 1967 1123 1980 1095 c 257
 2025 1010 2047 900 2047 764 c 256
 2047 522 1940 347 1709 347 c 258
 1615 347 l 258
 1326 347 1284 538 1283 879 c 256
1109 358 m 256
 1109 -32 940 -239 613 -239 c 257
 310 -238 129 -59 129 246 c 256
 129 384 160 518 220 651 c 257
 357 610 l 257
 329 519 314 440 314 373 c 256
 314 194 425 98 601 98 c 256
 795 98 894 159 894 331 c 256
 894 560 864 867 819 1308 c 257
 1016 1449 l 258
 1052 1475 1065 1480 1068 1418 c 256
 1087 1071 1109 664 1109 358 c 256
EndSplineSet
EndChar

StartChar: uniFD3E
Encoding: 64830 64830 294
Width: 1481
Flags: HMW
LayerCount: 2
Fore
SplineSet
724 676 m 256
 724 645 747 620 779 620 c 256
 812 620 835 645 835 676 c 256
 835 708 812 732 779 732 c 256
 747 732 724 707 724 676 c 256
739 205 m 256
 777 41 856 -90 963 -212 c 257
 907 -76 851 90 835 208 c 256
 832 231 840 250 856 266 c 258
 898 308 l 258
 913 322 931 330 951 330 c 258
 1123 330 l 257
 1123 1025 l 257
 951 1025 l 257
 926 1026 911 1034 898 1047 c 258
 853 1092 l 258
 837 1108 829 1128 832 1150 c 256
 851 1292 912 1481 977 1631 c 257
 855 1499 769 1349 728 1140 c 256
 725 1125 719 1112 708 1101 c 258
 654 1047 l 258
 639 1033 622 1025 601 1025 c 258
 428 1025 l 257
 428 853 l 258
 428 832 420 814 406 800 c 258
 284 678 l 257
 406 555 l 258
 420 541 428 523 428 503 c 258
 428 330 l 257
 601 330 l 257
 623 329 640 322 654 308 c 258
 719 243 l 258
 729 233 735 220 739 205 c 256
981 677 m 256
 981 564 890 473 777 473 c 256
 665 473 573 565 573 677 c 256
 573 786 665 881 777 881 c 256
 891 881 981 790 981 677 c 256
1281 1808 m 257
 1126 1667 1031 1437 985 1179 c 257
 989 1175 l 257
 1198 1175 l 258
 1239 1175 1273 1141 1273 1100 c 258
 1273 255 l 258
 1273 221 1241 181 1198 181 c 258
 993 181 l 257
 989 176 l 257
 1042 -95 1139 -285 1273 -393 c 256
 1335 -442 1276 -491 1213 -525 c 257
 889 -429 684 -206 598 153 c 257
 570 181 l 257
 353 181 l 257
 316 181 279 215 279 255 c 258
 279 472 l 257
 125 625 l 258
 108 643 99 660 99 678 c 256
 99 696 108 713 125 730 c 258
 279 883 l 257
 279 1100 l 257
 278 1138 314 1175 353 1175 c 258
 570 1175 l 257
 586 1191 l 257
 667 1587 873 1834 1205 1931 c 257
 1278 1953 1294 1873 1281 1808 c 257
EndSplineSet
EndChar

StartChar: uniFD3F
Encoding: 64831 64831 295
Width: 1481
Flags: HMW
LayerCount: 2
Fore
SplineSet
193 1808 m 257
 181 1873 195 1953 269 1931 c 257
 601 1834 808 1587 889 1191 c 257
 905 1175 l 257
 1122 1175 l 258
 1161 1175 1196 1138 1196 1100 c 257
 1196 883 l 257
 1349 730 l 258
 1367 713 1375 696 1375 678 c 256
 1375 660 1367 643 1349 625 c 258
 1196 472 l 257
 1196 255 l 258
 1196 215 1159 181 1122 181 c 257
 905 181 l 257
 877 153 l 257
 790 -206 586 -429 262 -525 c 257
 199 -491 140 -442 201 -393 c 256
 334 -285 431 -95 484 177 c 257
 481 181 l 257
 277 181 l 258
 233 181 202 221 202 255 c 258
 202 1100 l 258
 202 1141 236 1175 277 1175 c 258
 486 1175 l 257
 489 1178 l 257
 443 1436 348 1668 193 1808 c 257
491 677 m 256
 491 789 582 881 695 881 c 256
 807 881 899 786 899 677 c 256
 899 565 807 473 695 473 c 256
 582 473 491 564 491 677 c 256
735 205 m 256
 739 220 746 233 756 243 c 258
 821 308 l 258
 835 322 852 329 874 330 c 257
 1047 330 l 257
 1047 503 l 258
 1047 523 1053 541 1068 555 c 258
 1190 678 l 257
 1068 800 l 258
 1053 814 1047 832 1047 853 c 258
 1047 1025 l 257
 874 1025 l 258
 853 1025 835 1033 821 1047 c 258
 767 1101 l 258
 756 1112 750 1125 747 1140 c 256
 705 1349 620 1499 497 1631 c 257
 563 1481 624 1292 643 1150 c 257
 645 1128 638 1108 621 1092 c 258
 577 1047 l 258
 563 1034 549 1026 524 1025 c 257
 351 1025 l 257
 351 330 l 257
 524 330 l 258
 544 330 562 322 577 308 c 258
 618 266 l 258
 635 250 642 231 639 208 c 256
 623 90 568 -76 511 -212 c 257
 619 -90 698 41 735 205 c 256
752 676 m 256
 752 707 730 732 697 732 c 256
 664 732 641 708 641 676 c 256
 641 645 664 620 697 620 c 256
 730 620 752 645 752 676 c 256
EndSplineSet
EndChar

StartChar: NameMe.303
Encoding: 65562 -1 296
Width: 586
Flags: HMW
LayerCount: 2
Fore
SplineSet
-5 369 m 258
 27 369 l 258
 197 369 216 390 216 521 c 256
 216 706 201 844 156 1244 c 257
 381 1398 l 257
 416 1424 436 1416 438 1373 c 256
 449 1093 461 766 461 533 c 256
 461 193 355 0 28 0 c 258
 -5 0 l 258
 -42 0 -60 51 -60 154 c 258
 -60 224 l 258
 -60 321 -42 369 -5 369 c 258
EndSplineSet
EndChar

StartChar: NameMe.304
Encoding: 65563 -1 297
Width: 644
Flags: HMW
LayerCount: 2
Fore
SplineSet
-5 369 m 258
 35 369 l 258
 185 369 222 422 222 598 c 256
 222 728 210 875 193 1090 c 257
 412 1231 l 257
 453 1256 465 1254 465 1205 c 258
 465 655 l 258
 465 450 472 369 614 369 c 258
 649 369 l 258
 666 369 674 325 674 237 c 258
 674 142 l 258
 674 47 666 0 649 0 c 258
 601 0 l 258
 469 0 380 54 320 163 c 257
 249 54 148 0 31 0 c 258
 -5 0 l 258
 -42 0 -60 51 -60 154 c 258
 -60 224 l 258
 -60 321 -42 369 -5 369 c 258
EndSplineSet
EndChar

StartChar: NameMe.306
Encoding: 65566 -1 299
Width: 553
Flags: HMW
LayerCount: 2
Fore
SplineSet
375 733 m 257
 376 438 390 369 538 369 c 258
 558 369 l 258
 575 369 583 321 583 224 c 258
 583 142 l 258
 583 47 575 0 558 0 c 258
 496 0 l 258
 182 0 135 215 134 608 c 256
 133 858 122 1031 79 1190 c 257
 307 1343 l 257
 347 1371 356 1363 359 1311 c 256
 368 1124 373 942 375 733 c 257
EndSplineSet
EndChar

StartChar: uni06C1
Encoding: 1729 1729 300
Width: 987
Flags: HMW
AnchorPoint: "Anchor-7" 459 -200 basechar 0
AnchorPoint: "Anchor-10" 603 1189 basechar 0
LayerCount: 2
Fore
SplineSet
620 720 m 257
 764 720 832 602 840 426 c 256
 842 382 870 364 932 363 c 257
 998 363 l 257
 998 0 l 257
 917 0 l 258
 673 0 590 102 581 319 c 257
 578 410 533 364 500 314 c 257
 403 160 305 -47 268 -131 c 257
 59 -25 l 257
 190 346 355 720 620 720 c 257
EndSplineSet
EndChar

StartChar: NameMe.65567
Encoding: 65567 -1 304
Width: 678
Flags: HMW
LayerCount: 2
Fore
SplineSet
94 -2 m 257
 142 -25 191 -40 246 -40 c 256
 329 -40 444 -16 458 31 c 257
 446 45 388 65 356 75 c 256
 293 95 262 132 262 181 c 256
 262 299 397 466 546 466 c 256
 578 466 613 461 651 450 c 257
 648 409 638 357 622 292 c 257
 605 295 587 296 569 296 c 256
 505 296 456 272 420 226 c 257
 522 192 l 257
 573 176 598 138 598 80 c 256
 598 -112 435 -202 248 -202 c 256
 177 -202 107 -188 38 -160 c 257
 94 -2 l 257
EndSplineSet
EndChar

StartChar: NameMe.65541
Encoding: 65541 -1 305
Width: 592
Flags: HMW
AnchorPoint: "Anchor-7" 351 -250 basechar 0
AnchorPoint: "Anchor-10" 323 1271 basechar 0
LayerCount: 2
Fore
SplineSet
-5 0 m 258
 -42 0 -60 51 -60 154 c 258
 -60 224 l 258
 -60 321 -42 369 -5 369 c 258
 102 369 l 258
 210 369 306 382 306 448 c 260
 306 501 259 604 212 709 c 257
 364 903 l 258
 389 935 396 937 417 902 c 256
 484 791 519 662 519 517 c 256
 519 220 365 0 82 0 c 258
 -5 0 l 258
EndSplineSet
EndChar

StartChar: NameMe.65542
Encoding: 65542 -1 306
Width: 688
Flags: HMW
AnchorPoint: "Anchor-7" 361 -209 basechar 0
AnchorPoint: "Anchor-10" 387 1169 basechar 0
LayerCount: 2
Fore
SplineSet
-5 0 m 258
 -42 0 -60 51 -60 154 c 258
 -60 224 l 258
 -60 321 -42 369 -5 369 c 258
 81 369 l 258
 212 369 283 419 294 521 c 258
 311 681 l 257
 460 681 l 257
 478 524 l 257
 491 420 556 369 674 369 c 258
 693 369 l 258
 710 369 718 325 718 237 c 258
 718 142 l 258
 718 47 710 0 693 0 c 258
 672 0 l 258
 539 0 447 54 380 164 c 257
 307 54 201 0 76 0 c 258
 -5 0 l 258
EndSplineSet
EndChar
